<svg xmlns="http://www.w3.org/2000/svg" width="960" height="540" viewBox="0 0 960 540">
<style>
text { font-family: Helvetica, Arial, sans-serif; fill: #13233a; }
.title { font-size: 24px; font-weight: 700; }
.axis-label { font-size: 16px; font-weight: 600; }
.tick { font-size: 12px; }
.grid { stroke: #d7e0ea; stroke-width: 1; }
.axis { stroke: #13233a; stroke-width: 2; }
.line { fill: none; stroke: #0b7285; stroke-width: 3; }
.marker { fill: #0b7285; }
.error { stroke: #2f4858; stroke-width: 1.5; }
</style>
<rect width="960" height="540" fill="#ffffff"/>
<text class="title" x="88" y="32">End-to-End Delay vs Node Count</text>
<line class="grid" x1="88" y1="464.0" x2="936" y2="464.0"/>
<text class="tick" x="76" y="468.0" text-anchor="end">0</text>
<line class="grid" x1="88" y1="382.4" x2="936" y2="382.4"/>
<text class="tick" x="76" y="386.4" text-anchor="end">20</text>
<line class="grid" x1="88" y1="300.79999999999995" x2="936" y2="300.79999999999995"/>
<text class="tick" x="76" y="304.79999999999995" text-anchor="end">40</text>
<line class="grid" x1="88" y1="219.20000000000002" x2="936" y2="219.20000000000002"/>
<text class="tick" x="76" y="223.20000000000002" text-anchor="end">60</text>
<line class="grid" x1="88" y1="137.59999999999997" x2="936" y2="137.59999999999997"/>
<text class="tick" x="76" y="141.59999999999997" text-anchor="end">80</text>
<line class="grid" x1="88" y1="56.0" x2="936" y2="56.0"/>
<text class="tick" x="76" y="60.0" text-anchor="end">100</text>
<line class="grid" x1="88.0" y1="56" x2="88.0" y2="464"/>
<text class="tick" x="88.0" y="484" text-anchor="middle">10</text>
<line class="grid" x1="173.75280898876406" y1="56" x2="173.75280898876406" y2="464"/>
<text class="tick" x="173.75280898876406" y="484" text-anchor="middle">100</text>
<line class="grid" x1="269.03370786516854" y1="56" x2="269.03370786516854" y2="464"/>
<text class="tick" x="269.03370786516854" y="484" text-anchor="middle">200</text>
<line class="grid" x1="364.3146067415731" y1="56" x2="364.3146067415731" y2="464"/>
<text class="tick" x="364.3146067415731" y="484" text-anchor="middle">300</text>
<line class="grid" x1="459.59550561797755" y1="56" x2="459.59550561797755" y2="464"/>
<text class="tick" x="459.59550561797755" y="484" text-anchor="middle">400</text>
<line class="grid" x1="554.8764044943821" y1="56" x2="554.8764044943821" y2="464"/>
<text class="tick" x="554.8764044943821" y="484" text-anchor="middle">500</text>
<line class="grid" x1="650.1573033707865" y1="56" x2="650.1573033707865" y2="464"/>
<text class="tick" x="650.1573033707865" y="484" text-anchor="middle">600</text>
<line class="grid" x1="745.438202247191" y1="56" x2="745.438202247191" y2="464"/>
<text class="tick" x="745.438202247191" y="484" text-anchor="middle">700</text>
<line class="grid" x1="840.7191011235955" y1="56" x2="840.7191011235955" y2="464"/>
<text class="tick" x="840.7191011235955" y="484" text-anchor="middle">800</text>
<line class="grid" x1="936.0" y1="56" x2="936.0" y2="464"/>
<text class="tick" x="936.0" y="484" text-anchor="middle">900</text>
<line class="axis" x1="88" y1="464" x2="936" y2="464"/>
<line class="axis" x1="88" y1="56" x2="88" y2="464"/>
<text class="axis-label" x="512.0" y="524" text-anchor="middle">Number of Vehicles</text>
<text class="axis-label" x="22" y="260.0" text-anchor="middle" transform="rotate(-90 22 260.0)">End-to-End Delay (ms)</text>
<polyline class="line" points="88.0,299.372446352 97.52808988764045,381.674120672 107.0561797752809,293.26446032 116.58426966292134,350.05710152 126.11235955056179,350.436633728 135.64044943820224,367.822662656 145.1685393258427,357.828825056 154.69662921348316,361.420639184 164.22471910112358,371.386396592 173.75280898876406,358.76926016 183.28089887640448,349.78463096 192.80898876404495,353.191383632 202.33707865168537,353.52374288 211.86516853932585,352.300801232 221.3932584269663,361.50161494400004 230.92134831460675,341.168844368 240.4494382022472,350.7194528 249.97752808988764,346.371524912 259.5056179775281,346.639740848 269.03370786516854,347.922399008 278.56179775280896,338.46633478399997 288.08988764044943,341.022201824 297.6179775280899,335.350302512 307.1460674157304,335.327328848 316.67415730337075,336.286687808 326.2022471910112,329.410401056 335.7303370786517,339.025957376 345.2584269662922,334.848562064 354.7865168539326,325.599215936 364.3146067415731,334.667009408 373.8426966292135,320.751035168 383.37078651685397,312.815464544 392.8988764044944,317.18612048 402.42696629213486,305.65706292799996 411.9550561797753,305.949112592 421.48314606741576,305.129334512 431.0112359550562,292.469977424 440.53932584269666,289.66416632 450.0674157303371,305.014092464 459.59550561797755,309.43266800000004 469.12359550561797,307.79986424000003 478.65168539325845,290.468808416 488.17977528089887,279.998248112 497.70786516853934,293.51927427199996 507.23595505617976,278.53996471999994 516.7640449438202,284.59649542399995 526.2921348314608,283.447254896 535.8202247191011,284.97451313600004 545.3483146067415,279.385547984 554.8764044943821,281.549694224 564.4044943820224,276.62619992 573.9325842696628,275.28791504000003 583.4606741573034,275.00257126400004 592.9887640449438,275.67262803200003 602.5168539325844,276.826336976 612.0449438202247,272.76554398400003 621.5730337078652,270.385414784 631.1011235955057,269.93104313599997 640.6292134831461,274.46697824 650.1573033707865,262.158718208 659.685393258427,253.26553812799997 669.2134831460675,258.319848656 678.7415730337079,255.45701792 688.2696629213483,249.478040672 697.7977528089888,261.14709444799996 707.3258426966293,251.21975187200002 716.8539325842697,243.117642176 726.3820224719101,252.249330896 735.9101123595506,239.90442675199995 745.438202247191,227.62600947200002 754.9662921348315,206.771069072 764.4943820224719,204.15035777600002 774.0224719101124,215.06524884799998 783.5505617977528,203.499407648 793.0786516853933,189.01537664000006 802.6067415730337,213.62596928 812.1348314606741,209.97237823999998 821.6629213483146,198.53626063999997 831.1910112359551,214.39325816000002 840.7191011235955,167.796692 850.2471910112359,206.34194936 859.7752808988764,166.52854639999998 869.3033707865169,188.22767552 878.8314606741573,127.38725815999999 888.3595505617977,137.20961336 897.8876404494382,125.78796344 907.4157303370787,194.20268455999997 916.943820224719,102.89524255999999 926.4719101123595,110.75931608000002 936.0,135.41853824000003"/>
<line class="error" x1="88.0" y1="331.1390015521815" x2="88.0" y2="267.60589115181847"/>
<line class="error" x1="82.0" y1="331.1390015521815" x2="94.0" y2="331.1390015521815"/>
<line class="error" x1="82.0" y1="267.60589115181847" x2="94.0" y2="267.60589115181847"/>
<circle class="marker" cx="88.0" cy="299.372446352" r="4.5"/>
<line class="error" x1="97.52808988764045" y1="413.946209064306" x2="97.52808988764045" y2="349.402032279694"/>
<line class="error" x1="91.52808988764045" y1="413.946209064306" x2="103.52808988764045" y2="413.946209064306"/>
<line class="error" x1="91.52808988764045" y1="349.402032279694" x2="103.52808988764045" y2="349.402032279694"/>
<circle class="marker" cx="97.52808988764045" cy="381.674120672" r="4.5"/>
<line class="error" x1="107.0561797752809" y1="303.3033596113811" x2="107.0561797752809" y2="283.2255610286189"/>
<line class="error" x1="101.0561797752809" y1="303.3033596113811" x2="113.0561797752809" y2="303.3033596113811"/>
<line class="error" x1="101.0561797752809" y1="283.2255610286189" x2="113.0561797752809" y2="283.2255610286189"/>
<circle class="marker" cx="107.0561797752809" cy="293.26446032" r="4.5"/>
<line class="error" x1="116.58426966292134" y1="384.0190475774266" x2="116.58426966292134" y2="316.0951554625734"/>
<line class="error" x1="110.58426966292134" y1="384.0190475774266" x2="122.58426966292134" y2="384.0190475774266"/>
<line class="error" x1="110.58426966292134" y1="316.0951554625734" x2="122.58426966292134" y2="316.0951554625734"/>
<circle class="marker" cx="116.58426966292134" cy="350.05710152" r="4.5"/>
<line class="error" x1="126.11235955056179" y1="362.9285197578208" x2="126.11235955056179" y2="337.9447476981791"/>
<line class="error" x1="120.11235955056179" y1="362.9285197578208" x2="132.1123595505618" y2="362.9285197578208"/>
<line class="error" x1="120.11235955056179" y1="337.9447476981791" x2="132.1123595505618" y2="337.9447476981791"/>
<circle class="marker" cx="126.11235955056179" cy="350.436633728" r="4.5"/>
<line class="error" x1="135.64044943820224" y1="386.3881807773745" x2="135.64044943820224" y2="349.2571445346255"/>
<line class="error" x1="129.64044943820224" y1="386.3881807773745" x2="141.64044943820224" y2="386.3881807773745"/>
<line class="error" x1="129.64044943820224" y1="349.2571445346255" x2="141.64044943820224" y2="349.2571445346255"/>
<circle class="marker" cx="135.64044943820224" cy="367.822662656" r="4.5"/>
<line class="error" x1="145.1685393258427" y1="375.09079544059625" x2="145.1685393258427" y2="340.5668546714037"/>
<line class="error" x1="139.1685393258427" y1="375.09079544059625" x2="151.1685393258427" y2="375.09079544059625"/>
<line class="error" x1="139.1685393258427" y1="340.5668546714037" x2="151.1685393258427" y2="340.5668546714037"/>
<circle class="marker" cx="145.1685393258427" cy="357.828825056" r="4.5"/>
<line class="error" x1="154.69662921348316" y1="371.59732834167477" x2="154.69662921348316" y2="351.2439500263252"/>
<line class="error" x1="148.69662921348316" y1="371.59732834167477" x2="160.69662921348316" y2="371.59732834167477"/>
<line class="error" x1="148.69662921348316" y1="351.2439500263252" x2="160.69662921348316" y2="351.2439500263252"/>
<circle class="marker" cx="154.69662921348316" cy="361.420639184" r="4.5"/>
<line class="error" x1="164.22471910112358" y1="382.2865883720498" x2="164.22471910112358" y2="360.48620481195024"/>
<line class="error" x1="158.22471910112358" y1="382.2865883720498" x2="170.22471910112358" y2="382.2865883720498"/>
<line class="error" x1="158.22471910112358" y1="360.48620481195024" x2="170.22471910112358" y2="360.48620481195024"/>
<circle class="marker" cx="164.22471910112358" cy="371.386396592" r="4.5"/>
<line class="error" x1="173.75280898876406" y1="380.34214799261713" x2="173.75280898876406" y2="337.1963723273829"/>
<line class="error" x1="167.75280898876406" y1="380.34214799261713" x2="179.75280898876406" y2="380.34214799261713"/>
<line class="error" x1="167.75280898876406" y1="337.1963723273829" x2="179.75280898876406" y2="337.1963723273829"/>
<circle class="marker" cx="173.75280898876406" cy="358.76926016" r="4.5"/>
<line class="error" x1="183.28089887640448" y1="353.1778602349503" x2="183.28089887640448" y2="346.39140168504974"/>
<line class="error" x1="177.28089887640448" y1="353.1778602349503" x2="189.28089887640448" y2="353.1778602349503"/>
<line class="error" x1="177.28089887640448" y1="346.39140168504974" x2="189.28089887640448" y2="346.39140168504974"/>
<circle class="marker" cx="183.28089887640448" cy="349.78463096" r="4.5"/>
<line class="error" x1="192.80898876404495" y1="355.83806507872924" x2="192.80898876404495" y2="350.54470218527075"/>
<line class="error" x1="186.80898876404495" y1="355.83806507872924" x2="198.80898876404495" y2="355.83806507872924"/>
<line class="error" x1="186.80898876404495" y1="350.54470218527075" x2="198.80898876404495" y2="350.54470218527075"/>
<circle class="marker" cx="192.80898876404495" cy="353.191383632" r="4.5"/>
<line class="error" x1="202.33707865168537" y1="368.3859980706279" x2="202.33707865168537" y2="338.6614876893721"/>
<line class="error" x1="196.33707865168537" y1="368.3859980706279" x2="208.33707865168537" y2="368.3859980706279"/>
<line class="error" x1="196.33707865168537" y1="338.6614876893721" x2="208.33707865168537" y2="338.6614876893721"/>
<circle class="marker" cx="202.33707865168537" cy="353.52374288" r="4.5"/>
<line class="error" x1="211.86516853932585" y1="367.44218625498917" x2="211.86516853932585" y2="337.15941620901083"/>
<line class="error" x1="205.86516853932585" y1="367.44218625498917" x2="217.86516853932585" y2="367.44218625498917"/>
<line class="error" x1="205.86516853932585" y1="337.15941620901083" x2="217.86516853932585" y2="337.15941620901083"/>
<circle class="marker" cx="211.86516853932585" cy="352.300801232" r="4.5"/>
<line class="error" x1="221.3932584269663" y1="375.11384747758854" x2="221.3932584269663" y2="347.8893824104115"/>
<line class="error" x1="215.3932584269663" y1="375.11384747758854" x2="227.3932584269663" y2="375.11384747758854"/>
<line class="error" x1="215.3932584269663" y1="347.8893824104115" x2="227.3932584269663" y2="347.8893824104115"/>
<circle class="marker" cx="221.3932584269663" cy="361.50161494400004" r="4.5"/>
<line class="error" x1="230.92134831460675" y1="348.7435925707665" x2="230.92134831460675" y2="333.5940961652335"/>
<line class="error" x1="224.92134831460675" y1="348.7435925707665" x2="236.92134831460675" y2="348.7435925707665"/>
<line class="error" x1="224.92134831460675" y1="333.5940961652335" x2="236.92134831460675" y2="333.5940961652335"/>
<circle class="marker" cx="230.92134831460675" cy="341.168844368" r="4.5"/>
<line class="error" x1="240.4494382022472" y1="361.34237099372365" x2="240.4494382022472" y2="340.09653460627635"/>
<line class="error" x1="234.4494382022472" y1="361.34237099372365" x2="246.4494382022472" y2="361.34237099372365"/>
<line class="error" x1="234.4494382022472" y1="340.09653460627635" x2="246.4494382022472" y2="340.09653460627635"/>
<circle class="marker" cx="240.4494382022472" cy="350.7194528" r="4.5"/>
<line class="error" x1="249.97752808988764" y1="351.04286011289577" x2="249.97752808988764" y2="341.70018971110426"/>
<line class="error" x1="243.97752808988764" y1="351.04286011289577" x2="255.97752808988764" y2="351.04286011289577"/>
<line class="error" x1="243.97752808988764" y1="341.70018971110426" x2="255.97752808988764" y2="341.70018971110426"/>
<circle class="marker" cx="249.97752808988764" cy="346.371524912" r="4.5"/>
<line class="error" x1="259.5056179775281" y1="358.12640810365747" x2="259.5056179775281" y2="335.15307359234254"/>
<line class="error" x1="253.50561797752812" y1="358.12640810365747" x2="265.5056179775281" y2="358.12640810365747"/>
<line class="error" x1="253.50561797752812" y1="335.15307359234254" x2="265.5056179775281" y2="335.15307359234254"/>
<circle class="marker" cx="259.5056179775281" cy="346.639740848" r="4.5"/>
<line class="error" x1="269.03370786516854" y1="361.3305137962037" x2="269.03370786516854" y2="334.5142842197963"/>
<line class="error" x1="263.03370786516854" y1="361.3305137962037" x2="275.03370786516854" y2="361.3305137962037"/>
<line class="error" x1="263.03370786516854" y1="334.5142842197963" x2="275.03370786516854" y2="334.5142842197963"/>
<circle class="marker" cx="269.03370786516854" cy="347.922399008" r="4.5"/>
<line class="error" x1="278.56179775280896" y1="347.9259110941703" x2="278.56179775280896" y2="329.0067584738297"/>
<line class="error" x1="272.56179775280896" y1="347.9259110941703" x2="284.56179775280896" y2="347.9259110941703"/>
<line class="error" x1="272.56179775280896" y1="329.0067584738297" x2="284.56179775280896" y2="329.0067584738297"/>
<circle class="marker" cx="278.56179775280896" cy="338.46633478399997" r="4.5"/>
<line class="error" x1="288.08988764044943" y1="350.56286636249877" x2="288.08988764044943" y2="331.4815372855012"/>
<line class="error" x1="282.08988764044943" y1="350.56286636249877" x2="294.08988764044943" y2="350.56286636249877"/>
<line class="error" x1="282.08988764044943" y1="331.4815372855012" x2="294.08988764044943" y2="331.4815372855012"/>
<circle class="marker" cx="288.08988764044943" cy="341.022201824" r="4.5"/>
<line class="error" x1="297.6179775280899" y1="352.38554942069106" x2="297.6179775280899" y2="318.315055603309"/>
<line class="error" x1="291.6179775280899" y1="352.38554942069106" x2="303.6179775280899" y2="352.38554942069106"/>
<line class="error" x1="291.6179775280899" y1="318.315055603309" x2="303.6179775280899" y2="318.315055603309"/>
<circle class="marker" cx="297.6179775280899" cy="335.350302512" r="4.5"/>
<line class="error" x1="307.1460674157304" y1="349.6172932143993" x2="307.1460674157304" y2="321.03736448160066"/>
<line class="error" x1="301.1460674157304" y1="349.6172932143993" x2="313.1460674157304" y2="349.6172932143993"/>
<line class="error" x1="301.1460674157304" y1="321.03736448160066" x2="313.1460674157304" y2="321.03736448160066"/>
<circle class="marker" cx="307.1460674157304" cy="335.327328848" r="4.5"/>
<line class="error" x1="316.67415730337075" y1="348.452843531942" x2="316.67415730337075" y2="324.12053208405797"/>
<line class="error" x1="310.67415730337075" y1="348.452843531942" x2="322.67415730337075" y2="348.452843531942"/>
<line class="error" x1="310.67415730337075" y1="324.12053208405797" x2="322.67415730337075" y2="324.12053208405797"/>
<circle class="marker" cx="316.67415730337075" cy="336.286687808" r="4.5"/>
<line class="error" x1="326.2022471910112" y1="339.63778732786227" x2="326.2022471910112" y2="319.18301478413775"/>
<line class="error" x1="320.2022471910112" y1="339.63778732786227" x2="332.2022471910112" y2="339.63778732786227"/>
<line class="error" x1="320.2022471910112" y1="319.18301478413775" x2="332.2022471910112" y2="319.18301478413775"/>
<circle class="marker" cx="326.2022471910112" cy="329.410401056" r="4.5"/>
<line class="error" x1="335.7303370786517" y1="345.4633941906875" x2="335.7303370786517" y2="332.5885205613125"/>
<line class="error" x1="329.7303370786517" y1="345.4633941906875" x2="341.7303370786517" y2="345.4633941906875"/>
<line class="error" x1="329.7303370786517" y1="332.5885205613125" x2="341.7303370786517" y2="332.5885205613125"/>
<circle class="marker" cx="335.7303370786517" cy="339.025957376" r="4.5"/>
<line class="error" x1="345.2584269662922" y1="348.5339716595977" x2="345.2584269662922" y2="321.16315246840225"/>
<line class="error" x1="339.2584269662922" y1="348.5339716595977" x2="351.2584269662922" y2="348.5339716595977"/>
<line class="error" x1="339.2584269662922" y1="321.16315246840225" x2="351.2584269662922" y2="321.16315246840225"/>
<circle class="marker" cx="345.2584269662922" cy="334.848562064" r="4.5"/>
<line class="error" x1="354.7865168539326" y1="337.4093993635254" x2="354.7865168539326" y2="313.78903250847463"/>
<line class="error" x1="348.7865168539326" y1="337.4093993635254" x2="360.7865168539326" y2="337.4093993635254"/>
<line class="error" x1="348.7865168539326" y1="313.78903250847463" x2="360.7865168539326" y2="313.78903250847463"/>
<circle class="marker" cx="354.7865168539326" cy="325.599215936" r="4.5"/>
<line class="error" x1="364.3146067415731" y1="348.1510441401555" x2="364.3146067415731" y2="321.18297467584455"/>
<line class="error" x1="358.3146067415731" y1="348.1510441401555" x2="370.3146067415731" y2="348.1510441401555"/>
<line class="error" x1="358.3146067415731" y1="321.18297467584455" x2="370.3146067415731" y2="321.18297467584455"/>
<circle class="marker" cx="364.3146067415731" cy="334.667009408" r="4.5"/>
<line class="error" x1="373.8426966292135" y1="337.497539565465" x2="373.8426966292135" y2="304.004530770535"/>
<line class="error" x1="367.8426966292135" y1="337.497539565465" x2="379.8426966292135" y2="337.497539565465"/>
<line class="error" x1="367.8426966292135" y1="304.004530770535" x2="379.8426966292135" y2="304.004530770535"/>
<circle class="marker" cx="373.8426966292135" cy="320.751035168" r="4.5"/>
<line class="error" x1="383.37078651685397" y1="328.556520685671" x2="383.37078651685397" y2="297.074408402329"/>
<line class="error" x1="377.37078651685397" y1="328.556520685671" x2="389.37078651685397" y2="328.556520685671"/>
<line class="error" x1="377.37078651685397" y1="297.074408402329" x2="389.37078651685397" y2="297.074408402329"/>
<circle class="marker" cx="383.37078651685397" cy="312.815464544" r="4.5"/>
<line class="error" x1="392.8988764044944" y1="333.2329312449633" x2="392.8988764044944" y2="301.1393097150367"/>
<line class="error" x1="386.8988764044944" y1="333.2329312449633" x2="398.8988764044944" y2="333.2329312449633"/>
<line class="error" x1="386.8988764044944" y1="301.1393097150367" x2="398.8988764044944" y2="301.1393097150367"/>
<circle class="marker" cx="392.8988764044944" cy="317.18612048" r="4.5"/>
<line class="error" x1="402.42696629213486" y1="314.0970024916031" x2="402.42696629213486" y2="297.2171233643969"/>
<line class="error" x1="396.42696629213486" y1="314.0970024916031" x2="408.42696629213486" y2="314.0970024916031"/>
<line class="error" x1="396.42696629213486" y1="297.2171233643969" x2="408.42696629213486" y2="297.2171233643969"/>
<circle class="marker" cx="402.42696629213486" cy="305.65706292799996" r="4.5"/>
<line class="error" x1="411.9550561797753" y1="318.7943739102558" x2="411.9550561797753" y2="293.1038512737443"/>
<line class="error" x1="405.9550561797753" y1="318.7943739102558" x2="417.9550561797753" y2="318.7943739102558"/>
<line class="error" x1="405.9550561797753" y1="293.1038512737443" x2="417.9550561797753" y2="293.1038512737443"/>
<circle class="marker" cx="411.9550561797753" cy="305.949112592" r="4.5"/>
<line class="error" x1="421.48314606741576" y1="315.82706335690875" x2="421.48314606741576" y2="294.4316056670913"/>
<line class="error" x1="415.48314606741576" y1="315.82706335690875" x2="427.48314606741576" y2="315.82706335690875"/>
<line class="error" x1="415.48314606741576" y1="294.4316056670913" x2="427.48314606741576" y2="294.4316056670913"/>
<circle class="marker" cx="421.48314606741576" cy="305.129334512" r="4.5"/>
<line class="error" x1="431.0112359550562" y1="307.2157508481131" x2="431.0112359550562" y2="277.72420399988687"/>
<line class="error" x1="425.0112359550562" y1="307.2157508481131" x2="437.0112359550562" y2="307.2157508481131"/>
<line class="error" x1="425.0112359550562" y1="277.72420399988687" x2="437.0112359550562" y2="277.72420399988687"/>
<circle class="marker" cx="431.0112359550562" cy="292.469977424" r="4.5"/>
<line class="error" x1="440.53932584269666" y1="301.37686269133644" x2="440.53932584269666" y2="277.95146994866354"/>
<line class="error" x1="434.53932584269666" y1="301.37686269133644" x2="446.53932584269666" y2="301.37686269133644"/>
<line class="error" x1="434.53932584269666" y1="277.95146994866354" x2="446.53932584269666" y2="277.95146994866354"/>
<circle class="marker" cx="440.53932584269666" cy="289.66416632" r="4.5"/>
<line class="error" x1="450.0674157303371" y1="315.62850958133663" x2="450.0674157303371" y2="294.39967534666346"/>
<line class="error" x1="444.0674157303371" y1="315.62850958133663" x2="456.0674157303371" y2="315.62850958133663"/>
<line class="error" x1="444.0674157303371" y1="294.39967534666346" x2="456.0674157303371" y2="294.39967534666346"/>
<circle class="marker" cx="450.0674157303371" cy="305.014092464" r="4.5"/>
<line class="error" x1="459.59550561797755" y1="317.60218938613326" x2="459.59550561797755" y2="301.26314661386675"/>
<line class="error" x1="453.59550561797755" y1="317.60218938613326" x2="465.59550561797755" y2="317.60218938613326"/>
<line class="error" x1="453.59550561797755" y1="301.26314661386675" x2="465.59550561797755" y2="301.26314661386675"/>
<circle class="marker" cx="459.59550561797755" cy="309.43266800000004" r="4.5"/>
<line class="error" x1="469.12359550561797" y1="323.3790224857112" x2="469.12359550561797" y2="292.2207059942889"/>
<line class="error" x1="463.12359550561797" y1="323.3790224857112" x2="475.12359550561797" y2="323.3790224857112"/>
<line class="error" x1="463.12359550561797" y1="292.2207059942889" x2="475.12359550561797" y2="292.2207059942889"/>
<circle class="marker" cx="469.12359550561797" cy="307.79986424000003" r="4.5"/>
<line class="error" x1="478.65168539325845" y1="296.69368889940716" x2="478.65168539325845" y2="284.24392793259284"/>
<line class="error" x1="472.65168539325845" y1="296.69368889940716" x2="484.65168539325845" y2="296.69368889940716"/>
<line class="error" x1="472.65168539325845" y1="284.24392793259284" x2="484.65168539325845" y2="284.24392793259284"/>
<circle class="marker" cx="478.65168539325845" cy="290.468808416" r="4.5"/>
<line class="error" x1="488.17977528089887" y1="301.5394646553849" x2="488.17977528089887" y2="258.4570315686151"/>
<line class="error" x1="482.17977528089887" y1="301.5394646553849" x2="494.17977528089887" y2="301.5394646553849"/>
<line class="error" x1="482.17977528089887" y1="258.4570315686151" x2="494.17977528089887" y2="258.4570315686151"/>
<circle class="marker" cx="488.17977528089887" cy="279.998248112" r="4.5"/>
<line class="error" x1="497.70786516853934" y1="306.9620991934587" x2="497.70786516853934" y2="280.0764493505413"/>
<line class="error" x1="491.70786516853934" y1="306.9620991934587" x2="503.70786516853934" y2="306.9620991934587"/>
<line class="error" x1="491.70786516853934" y1="280.0764493505413" x2="503.70786516853934" y2="280.0764493505413"/>
<circle class="marker" cx="497.70786516853934" cy="293.51927427199996" r="4.5"/>
<line class="error" x1="507.23595505617976" y1="294.7317670549446" x2="507.23595505617976" y2="262.3481623850554"/>
<line class="error" x1="501.23595505617976" y1="294.7317670549446" x2="513.2359550561798" y2="294.7317670549446"/>
<line class="error" x1="501.23595505617976" y1="262.3481623850554" x2="513.2359550561798" y2="262.3481623850554"/>
<circle class="marker" cx="507.23595505617976" cy="278.53996471999994" r="4.5"/>
<line class="error" x1="516.7640449438202" y1="290.73618343736905" x2="516.7640449438202" y2="278.4568074106309"/>
<line class="error" x1="510.7640449438202" y1="290.73618343736905" x2="522.7640449438202" y2="290.73618343736905"/>
<line class="error" x1="510.7640449438202" y1="278.4568074106309" x2="522.7640449438202" y2="278.4568074106309"/>
<circle class="marker" cx="516.7640449438202" cy="284.59649542399995" r="4.5"/>
<line class="error" x1="526.2921348314608" y1="292.38508370358755" x2="526.2921348314608" y2="274.5094260884124"/>
<line class="error" x1="520.2921348314608" y1="292.38508370358755" x2="532.2921348314608" y2="292.38508370358755"/>
<line class="error" x1="520.2921348314608" y1="274.5094260884124" x2="532.2921348314608" y2="274.5094260884124"/>
<circle class="marker" cx="526.2921348314608" cy="283.447254896" r="4.5"/>
<line class="error" x1="535.8202247191011" y1="301.04580607513816" x2="535.8202247191011" y2="268.9032201968618"/>
<line class="error" x1="529.8202247191011" y1="301.04580607513816" x2="541.8202247191011" y2="301.04580607513816"/>
<line class="error" x1="529.8202247191011" y1="268.9032201968618" x2="541.8202247191011" y2="268.9032201968618"/>
<circle class="marker" cx="535.8202247191011" cy="284.97451313600004" r="4.5"/>
<line class="error" x1="545.3483146067415" y1="287.6392810748989" x2="545.3483146067415" y2="271.1318148931011"/>
<line class="error" x1="539.3483146067415" y1="287.6392810748989" x2="551.3483146067415" y2="287.6392810748989"/>
<line class="error" x1="539.3483146067415" y1="271.1318148931011" x2="551.3483146067415" y2="271.1318148931011"/>
<circle class="marker" cx="545.3483146067415" cy="279.385547984" r="4.5"/>
<line class="error" x1="554.8764044943821" y1="292.6937970189519" x2="554.8764044943821" y2="270.40559142904806"/>
<line class="error" x1="548.8764044943821" y1="292.6937970189519" x2="560.8764044943821" y2="292.6937970189519"/>
<line class="error" x1="548.8764044943821" y1="270.40559142904806" x2="560.8764044943821" y2="270.40559142904806"/>
<circle class="marker" cx="554.8764044943821" cy="281.549694224" r="4.5"/>
<line class="error" x1="564.4044943820224" y1="285.51194349913214" x2="564.4044943820224" y2="267.74045634086787"/>
<line class="error" x1="558.4044943820224" y1="285.51194349913214" x2="570.4044943820224" y2="285.51194349913214"/>
<line class="error" x1="558.4044943820224" y1="267.74045634086787" x2="570.4044943820224" y2="267.74045634086787"/>
<circle class="marker" cx="564.4044943820224" cy="276.62619992" r="4.5"/>
<line class="error" x1="573.9325842696628" y1="288.3463610887155" x2="573.9325842696628" y2="262.2294689912844"/>
<line class="error" x1="567.9325842696628" y1="288.3463610887155" x2="579.9325842696628" y2="288.3463610887155"/>
<line class="error" x1="567.9325842696628" y1="262.2294689912844" x2="579.9325842696628" y2="262.2294689912844"/>
<circle class="marker" cx="573.9325842696628" cy="275.28791504000003" r="4.5"/>
<line class="error" x1="583.4606741573034" y1="288.41929466755664" x2="583.4606741573034" y2="261.5858478604434"/>
<line class="error" x1="577.4606741573034" y1="288.41929466755664" x2="589.4606741573034" y2="288.41929466755664"/>
<line class="error" x1="577.4606741573034" y1="261.5858478604434" x2="589.4606741573034" y2="261.5858478604434"/>
<circle class="marker" cx="583.4606741573034" cy="275.00257126400004" r="4.5"/>
<line class="error" x1="592.9887640449438" y1="286.75105132490916" x2="592.9887640449438" y2="264.59420473909086"/>
<line class="error" x1="586.9887640449438" y1="286.75105132490916" x2="598.9887640449438" y2="286.75105132490916"/>
<line class="error" x1="586.9887640449438" y1="264.59420473909086" x2="598.9887640449438" y2="264.59420473909086"/>
<circle class="marker" cx="592.9887640449438" cy="275.67262803200003" r="4.5"/>
<line class="error" x1="602.5168539325844" y1="299.4415595351753" x2="602.5168539325844" y2="254.21111441682473"/>
<line class="error" x1="596.5168539325844" y1="299.4415595351753" x2="608.5168539325844" y2="299.4415595351753"/>
<line class="error" x1="596.5168539325844" y1="254.21111441682473" x2="608.5168539325844" y2="254.21111441682473"/>
<circle class="marker" cx="602.5168539325844" cy="276.826336976" r="4.5"/>
<line class="error" x1="612.0449438202247" y1="279.44554608314627" x2="612.0449438202247" y2="266.0855418848537"/>
<line class="error" x1="606.0449438202247" y1="279.44554608314627" x2="618.0449438202247" y2="279.44554608314627"/>
<line class="error" x1="606.0449438202247" y1="266.0855418848537" x2="618.0449438202247" y2="266.0855418848537"/>
<circle class="marker" cx="612.0449438202247" cy="272.76554398400003" r="4.5"/>
<line class="error" x1="621.5730337078652" y1="282.0872108097369" x2="621.5730337078652" y2="258.68361875826315"/>
<line class="error" x1="615.5730337078652" y1="282.0872108097369" x2="627.5730337078652" y2="282.0872108097369"/>
<line class="error" x1="615.5730337078652" y1="258.68361875826315" x2="627.5730337078652" y2="258.68361875826315"/>
<circle class="marker" cx="621.5730337078652" cy="270.385414784" r="4.5"/>
<line class="error" x1="631.1011235955057" y1="279.03004011659743" x2="631.1011235955057" y2="260.8320461554025"/>
<line class="error" x1="625.1011235955057" y1="279.03004011659743" x2="637.1011235955057" y2="279.03004011659743"/>
<line class="error" x1="625.1011235955057" y1="260.8320461554025" x2="637.1011235955057" y2="260.8320461554025"/>
<circle class="marker" cx="631.1011235955057" cy="269.93104313599997" r="4.5"/>
<line class="error" x1="640.6292134831461" y1="283.5265544848569" x2="640.6292134831461" y2="265.4074019951431"/>
<line class="error" x1="634.6292134831461" y1="283.5265544848569" x2="646.6292134831461" y2="283.5265544848569"/>
<line class="error" x1="634.6292134831461" y1="265.4074019951431" x2="646.6292134831461" y2="265.4074019951431"/>
<circle class="marker" cx="640.6292134831461" cy="274.46697824" r="4.5"/>
<line class="error" x1="650.1573033707865" y1="277.74064562010904" x2="650.1573033707865" y2="246.57679079589093"/>
<line class="error" x1="644.1573033707865" y1="277.74064562010904" x2="656.1573033707865" y2="277.74064562010904"/>
<line class="error" x1="644.1573033707865" y1="246.57679079589093" x2="656.1573033707865" y2="246.57679079589093"/>
<circle class="marker" cx="650.1573033707865" cy="262.158718208" r="4.5"/>
<line class="error" x1="659.685393258427" y1="274.47047374510896" x2="659.685393258427" y2="232.06060251089104"/>
<line class="error" x1="653.685393258427" y1="274.47047374510896" x2="665.685393258427" y2="274.47047374510896"/>
<line class="error" x1="653.685393258427" y1="232.06060251089104" x2="665.685393258427" y2="232.06060251089104"/>
<circle class="marker" cx="659.685393258427" cy="253.26553812799997" r="4.5"/>
<line class="error" x1="669.2134831460675" y1="274.6093887994404" x2="669.2134831460675" y2="242.0303085125596"/>
<line class="error" x1="663.2134831460675" y1="274.6093887994404" x2="675.2134831460675" y2="274.6093887994404"/>
<line class="error" x1="663.2134831460675" y1="242.0303085125596" x2="675.2134831460675" y2="242.0303085125596"/>
<circle class="marker" cx="669.2134831460675" cy="258.319848656" r="4.5"/>
<line class="error" x1="678.7415730337079" y1="277.8135553711228" x2="678.7415730337079" y2="233.10048046887727"/>
<line class="error" x1="672.7415730337079" y1="277.8135553711228" x2="684.7415730337079" y2="277.8135553711228"/>
<line class="error" x1="672.7415730337079" y1="233.10048046887727" x2="684.7415730337079" y2="233.10048046887727"/>
<circle class="marker" cx="678.7415730337079" cy="255.45701792" r="4.5"/>
<line class="error" x1="688.2696629213483" y1="272.1613675697642" x2="688.2696629213483" y2="226.79471377423584"/>
<line class="error" x1="682.2696629213483" y1="272.1613675697642" x2="694.2696629213483" y2="272.1613675697642"/>
<line class="error" x1="682.2696629213483" y1="226.79471377423584" x2="694.2696629213483" y2="226.79471377423584"/>
<circle class="marker" cx="688.2696629213483" cy="249.478040672" r="4.5"/>
<line class="error" x1="697.7977528089888" y1="269.4640967492917" x2="697.7977528089888" y2="252.83009214670824"/>
<line class="error" x1="691.7977528089888" y1="269.4640967492917" x2="703.7977528089888" y2="269.4640967492917"/>
<line class="error" x1="691.7977528089888" y1="252.83009214670824" x2="703.7977528089888" y2="252.83009214670824"/>
<circle class="marker" cx="697.7977528089888" cy="261.14709444799996" r="4.5"/>
<line class="error" x1="707.3258426966293" y1="274.8356038158015" x2="707.3258426966293" y2="227.6038999281985"/>
<line class="error" x1="701.3258426966293" y1="274.8356038158015" x2="713.3258426966293" y2="274.8356038158015"/>
<line class="error" x1="701.3258426966293" y1="227.6038999281985" x2="713.3258426966293" y2="227.6038999281985"/>
<circle class="marker" cx="707.3258426966293" cy="251.21975187200002" r="4.5"/>
<line class="error" x1="716.8539325842697" y1="255.36430067318838" x2="716.8539325842697" y2="230.87098367881165"/>
<line class="error" x1="710.8539325842697" y1="255.36430067318838" x2="722.8539325842697" y2="255.36430067318838"/>
<line class="error" x1="710.8539325842697" y1="230.87098367881165" x2="722.8539325842697" y2="230.87098367881165"/>
<circle class="marker" cx="716.8539325842697" cy="243.117642176" r="4.5"/>
<line class="error" x1="726.3820224719101" y1="267.52994240547935" x2="726.3820224719101" y2="236.96871938652066"/>
<line class="error" x1="720.3820224719101" y1="267.52994240547935" x2="732.3820224719101" y2="267.52994240547935"/>
<line class="error" x1="720.3820224719101" y1="236.96871938652066" x2="732.3820224719101" y2="236.96871938652066"/>
<circle class="marker" cx="726.3820224719101" cy="252.249330896" r="4.5"/>
<line class="error" x1="735.9101123595506" y1="254.78814888313985" x2="735.9101123595506" y2="225.02070462086013"/>
<line class="error" x1="729.9101123595506" y1="254.78814888313985" x2="741.9101123595506" y2="254.78814888313985"/>
<line class="error" x1="729.9101123595506" y1="225.02070462086013" x2="741.9101123595506" y2="225.02070462086013"/>
<circle class="marker" cx="735.9101123595506" cy="239.90442675199995" r="4.5"/>
<line class="error" x1="745.438202247191" y1="261.5756745876515" x2="745.438202247191" y2="193.6763443563484"/>
<line class="error" x1="739.438202247191" y1="261.5756745876515" x2="751.438202247191" y2="261.5756745876515"/>
<line class="error" x1="739.438202247191" y1="193.6763443563484" x2="751.438202247191" y2="193.6763443563484"/>
<circle class="marker" cx="745.438202247191" cy="227.62600947200002" r="4.5"/>
<line class="error" x1="754.9662921348315" y1="227.97917710009665" x2="754.9662921348315" y2="185.56296104390333"/>
<line class="error" x1="748.9662921348315" y1="227.97917710009665" x2="760.9662921348315" y2="227.97917710009665"/>
<line class="error" x1="748.9662921348315" y1="185.56296104390333" x2="760.9662921348315" y2="185.56296104390333"/>
<circle class="marker" cx="754.9662921348315" cy="206.771069072" r="4.5"/>
<line class="error" x1="764.4943820224719" y1="232.57176568321603" x2="764.4943820224719" y2="175.72894986878396"/>
<line class="error" x1="758.4943820224719" y1="232.57176568321603" x2="770.4943820224719" y2="232.57176568321603"/>
<line class="error" x1="758.4943820224719" y1="175.72894986878396" x2="770.4943820224719" y2="175.72894986878396"/>
<circle class="marker" cx="764.4943820224719" cy="204.15035777600002" r="4.5"/>
<line class="error" x1="774.0224719101124" y1="227.5027765481857" x2="774.0224719101124" y2="202.62772114781438"/>
<line class="error" x1="768.0224719101124" y1="227.5027765481857" x2="780.0224719101124" y2="227.5027765481857"/>
<line class="error" x1="768.0224719101124" y1="202.62772114781438" x2="780.0224719101124" y2="202.62772114781438"/>
<circle class="marker" cx="774.0224719101124" cy="215.06524884799998" r="4.5"/>
<line class="error" x1="783.5505617977528" y1="236.383350887235" x2="783.5505617977528" y2="170.61546440876498"/>
<line class="error" x1="777.5505617977528" y1="236.383350887235" x2="789.5505617977528" y2="236.383350887235"/>
<line class="error" x1="777.5505617977528" y1="170.61546440876498" x2="789.5505617977528" y2="170.61546440876498"/>
<circle class="marker" cx="783.5505617977528" cy="203.499407648" r="4.5"/>
<line class="error" x1="793.0786516853933" y1="202.22503656067562" x2="793.0786516853933" y2="175.80571671932444"/>
<line class="error" x1="787.0786516853933" y1="202.22503656067562" x2="799.0786516853933" y2="202.22503656067562"/>
<line class="error" x1="787.0786516853933" y1="175.80571671932444" x2="799.0786516853933" y2="175.80571671932444"/>
<circle class="marker" cx="793.0786516853933" cy="189.01537664000006" r="4.5"/>
<line class="error" x1="802.6067415730337" y1="225.8257458498277" x2="802.6067415730337" y2="201.4261927101723"/>
<line class="error" x1="796.6067415730337" y1="225.8257458498277" x2="808.6067415730337" y2="225.8257458498277"/>
<line class="error" x1="796.6067415730337" y1="201.4261927101723" x2="808.6067415730337" y2="201.4261927101723"/>
<circle class="marker" cx="802.6067415730337" cy="213.62596928" r="4.5"/>
<circle class="marker" cx="812.1348314606741" cy="209.97237823999998" r="4.5"/>
<circle class="marker" cx="821.6629213483146" cy="198.53626063999997" r="4.5"/>
<circle class="marker" cx="831.1910112359551" cy="214.39325816000002" r="4.5"/>
<circle class="marker" cx="840.7191011235955" cy="167.796692" r="4.5"/>
<circle class="marker" cx="850.2471910112359" cy="206.34194936" r="4.5"/>
<circle class="marker" cx="859.7752808988764" cy="166.52854639999998" r="4.5"/>
<circle class="marker" cx="869.3033707865169" cy="188.22767552" r="4.5"/>
<circle class="marker" cx="878.8314606741573" cy="127.38725815999999" r="4.5"/>
<circle class="marker" cx="888.3595505617977" cy="137.20961336" r="4.5"/>
<circle class="marker" cx="897.8876404494382" cy="125.78796344" r="4.5"/>
<circle class="marker" cx="907.4157303370787" cy="194.20268455999997" r="4.5"/>
<circle class="marker" cx="916.943820224719" cy="102.89524255999999" r="4.5"/>
<circle class="marker" cx="926.4719101123595" cy="110.75931608000002" r="4.5"/>
<circle class="marker" cx="936.0" cy="135.41853824000003" r="4.5"/>
</svg>