<svg xmlns="http://www.w3.org/2000/svg" width="960" height="540" viewBox="0 0 960 540">
<style>
text { font-family: Helvetica, Arial, sans-serif; fill: #222222; }
.header { font-size: 17px; font-weight: 400; }
.subtitle { font-size: 15px; font-weight: 400; }
.axis-label { font-size: 13px; font-weight: 400; }
.tick { font-size: 11px; }
.grid { stroke: #bdbdbd; stroke-width: 1; stroke-dasharray: 1.5 2; }
.axis { stroke: #000000; stroke-width: 1; }
.legend { font-size: 11px; }
.line { fill: none; stroke-width: 1.5; }
.marker { stroke-width: 1.2; }
.tick-mark { stroke: #000000; stroke-width: 1; }
</style>
<rect width="960" height="540" fill="#ffffff"/>
<text class="header" x="480.0" y="22" text-anchor="middle">Network Performance vs Node Count</text>
<text class="subtitle" x="480.0" y="48" text-anchor="middle">End-to-End Delay vs Node Count</text>
<line class="grid" x1="92" y1="464.0" x2="932" y2="464.0"/>
<text class="tick" x="80" y="468.0" text-anchor="end">0</text>
<line class="grid" x1="92" y1="385.6" x2="932" y2="385.6"/>
<text class="tick" x="80" y="389.6" text-anchor="end">20</text>
<line class="grid" x1="92" y1="307.2" x2="932" y2="307.2"/>
<text class="tick" x="80" y="311.2" text-anchor="end">40</text>
<line class="grid" x1="92" y1="228.8" x2="932" y2="228.8"/>
<text class="tick" x="80" y="232.8" text-anchor="end">60</text>
<line class="grid" x1="92" y1="150.39999999999998" x2="932" y2="150.39999999999998"/>
<text class="tick" x="80" y="154.39999999999998" text-anchor="end">80</text>
<line class="grid" x1="92" y1="72.0" x2="932" y2="72.0"/>
<text class="tick" x="80" y="76.0" text-anchor="end">100</text>
<line class="grid" x1="92.0" y1="72" x2="92.0" y2="464"/>
<text class="tick" x="92.0" y="484" text-anchor="middle">10</text>
<line class="grid" x1="261.78723404255317" y1="72" x2="261.78723404255317" y2="464"/>
<text class="tick" x="261.78723404255317" y="484" text-anchor="middle">200</text>
<line class="grid" x1="440.51063829787233" y1="72" x2="440.51063829787233" y2="464"/>
<text class="tick" x="440.51063829787233" y="484" text-anchor="middle">400</text>
<line class="grid" x1="619.2340425531914" y1="72" x2="619.2340425531914" y2="464"/>
<text class="tick" x="619.2340425531914" y="484" text-anchor="middle">600</text>
<line class="grid" x1="797.9574468085107" y1="72" x2="797.9574468085107" y2="464"/>
<text class="tick" x="797.9574468085107" y="484" text-anchor="middle">800</text>
<line class="grid" x1="932.0" y1="72" x2="932.0" y2="464"/>
<text class="tick" x="932.0" y="484" text-anchor="middle">950</text>
<line class="axis" x1="92" y1="464" x2="932" y2="464"/>
<line class="axis" x1="92" y1="72" x2="92" y2="464"/>
<line class="axis" x1="92" y1="72" x2="932" y2="72"/>
<line class="axis" x1="932" y1="72" x2="932" y2="464"/>
<line class="tick-mark" x1="92" y1="464.0" x2="98" y2="464.0"/>
<line class="tick-mark" x1="926" y1="464.0" x2="932" y2="464.0"/>
<line class="tick-mark" x1="92" y1="385.6" x2="98" y2="385.6"/>
<line class="tick-mark" x1="926" y1="385.6" x2="932" y2="385.6"/>
<line class="tick-mark" x1="92" y1="307.2" x2="98" y2="307.2"/>
<line class="tick-mark" x1="926" y1="307.2" x2="932" y2="307.2"/>
<line class="tick-mark" x1="92" y1="228.8" x2="98" y2="228.8"/>
<line class="tick-mark" x1="926" y1="228.8" x2="932" y2="228.8"/>
<line class="tick-mark" x1="92" y1="150.39999999999998" x2="98" y2="150.39999999999998"/>
<line class="tick-mark" x1="926" y1="150.39999999999998" x2="932" y2="150.39999999999998"/>
<line class="tick-mark" x1="92" y1="72.0" x2="98" y2="72.0"/>
<line class="tick-mark" x1="926" y1="72.0" x2="932" y2="72.0"/>
<line class="tick-mark" x1="92.0" y1="458" x2="92.0" y2="464"/>
<line class="tick-mark" x1="92.0" y1="72" x2="92.0" y2="78"/>
<line class="tick-mark" x1="261.78723404255317" y1="458" x2="261.78723404255317" y2="464"/>
<line class="tick-mark" x1="261.78723404255317" y1="72" x2="261.78723404255317" y2="78"/>
<line class="tick-mark" x1="440.51063829787233" y1="458" x2="440.51063829787233" y2="464"/>
<line class="tick-mark" x1="440.51063829787233" y1="72" x2="440.51063829787233" y2="78"/>
<line class="tick-mark" x1="619.2340425531914" y1="458" x2="619.2340425531914" y2="464"/>
<line class="tick-mark" x1="619.2340425531914" y1="72" x2="619.2340425531914" y2="78"/>
<line class="tick-mark" x1="797.9574468085107" y1="458" x2="797.9574468085107" y2="464"/>
<line class="tick-mark" x1="797.9574468085107" y1="72" x2="797.9574468085107" y2="78"/>
<line class="tick-mark" x1="932.0" y1="458" x2="932.0" y2="464"/>
<line class="tick-mark" x1="932.0" y1="72" x2="932.0" y2="78"/>
<text class="axis-label" x="512.0" y="524" text-anchor="middle">Node Count</text>
<text class="axis-label" x="20" y="268.0" text-anchor="middle" transform="rotate(-90 20 268.0)">End-to-End Delay (ms)</text>
<polyline class="line" points="92.0,305.828428848 100.93617021276596,384.90258652800003 109.87234042553192,299.95997167999997 118.80851063829788,354.52545048 127.74468085106383,354.890099072 136.68085106382978,371.594322944 145.61702127659575,361.992400544 154.5531914893617,365.443359216 163.48936170212767,375.018302608 172.4255319148936,362.89595584 181.36170212765956,354.26366504 190.29787234042553,357.536819568 199.2340425531915,357.85614512 208.17021276595744,356.68116196799997 217.1063829787234,365.521159456 226.04255319148936,345.985752432 234.9787234042553,355.1618272 243.91489361702128,350.984406288 252.85106382978722,351.242103952 261.78723404255317,352.474461792 270.7234042553191,343.389223616 279.6595744680851,345.844860576 288.59574468085106,340.395388688 297.531914893617,340.373315952 306.468085106383,341.295052992 315.40425531914894,334.688424544 324.3404255319149,343.926900224 333.2765957446809,339.91332433599996 342.2127659574468,331.02669766400004 351.1489361702128,339.738891392 360.0851063829787,326.368641632 369.02127659574467,318.744269856 377.9574468085106,322.94352752 386.8936170212766,311.86658987199996 395.82978723404256,312.14718660799997 404.7659574468085,311.359556688 413.70212765957444,299.196644976 422.63829787234044,296.50086568 431.57446808510633,311.248833936 440.51063829787233,315.49413200000004 449.4468085106383,313.92535976 458.3829787234043,297.273953184 467.3191489361702,287.214003088 476.25531914893617,300.20479292799996 485.1914893617021,285.81290728 494.1276595744681,291.631926976 503.06382978723406,290.527754704 512.0,291.995120464 520.936170212766,286.625330416 529.872340425532,288.70460817599997 538.8085106382979,283.97419207999997 547.7446808510638,282.68838896 556.6808510638298,282.414235136 565.6170212765958,283.058015168 574.5531914893618,284.166480624 583.4893617021277,280.26493441599996 592.4255319148936,277.978143616 601.3617021276596,277.541590464 610.2978723404256,281.89964576 619.2340425531914,270.074062592 628.1702127659574,261.529634672 637.1063829787234,266.385736944 646.0425531914893,263.63517407999996 654.9787234042553,257.890666528 663.9148936170212,269.10211035199995 672.8510638297873,259.564075328 681.7872340425532,251.779695424 690.7234042553191,260.55327870400004 699.6595744680851,248.69248844799995 708.5957446808511,236.895577728 717.531914893617,216.858478128 726.468085106383,214.34053982400002 735.4042553191489,224.827395952 744.3404255319149,213.715117152 753.2765957446809,199.79908736000004 762.2127659574468,223.44455872 771.1489361702127,219.93424575999998 780.0851063829788,208.94660335999998 789.0212765957447,224.18175784000002 797.9574468085107,179.412508 806.8936170212766,216.44618664 815.8297872340426,178.19409359999997 824.7659574468086,199.04227648 833.7021276595744,140.58775784 842.6382978723404,150.02492264 851.5744680851064,139.05118055999998 860.5106382978723,204.78297143999998 869.4468085106382,117.05621343999996 878.3829787234042,124.61189192 887.3191489361702,148.30408576000002 896.2553191489362,137.66146607999997 905.1914893617021,182.53462336 914.1276595744681,93.70853272000005 923.0638297872341,103.91122648000004 932.0,95.28862592000002" stroke="#0000ff"/>
<line class="marker" x1="88.0" y1="305.828428848" x2="96.0" y2="305.828428848" stroke="#0000ff"/>
<line class="marker" x1="92.0" y1="301.828428848" x2="92.0" y2="309.828428848" stroke="#0000ff"/>
<line class="marker" x1="96.93617021276596" y1="384.90258652800003" x2="104.93617021276596" y2="384.90258652800003" stroke="#0000ff"/>
<line class="marker" x1="100.93617021276596" y1="380.90258652800003" x2="100.93617021276596" y2="388.90258652800003" stroke="#0000ff"/>
<line class="marker" x1="105.87234042553192" y1="299.95997167999997" x2="113.87234042553192" y2="299.95997167999997" stroke="#0000ff"/>
<line class="marker" x1="109.87234042553192" y1="295.95997167999997" x2="109.87234042553192" y2="303.95997167999997" stroke="#0000ff"/>
<line class="marker" x1="114.80851063829788" y1="354.52545048" x2="122.80851063829788" y2="354.52545048" stroke="#0000ff"/>
<line class="marker" x1="118.80851063829788" y1="350.52545048" x2="118.80851063829788" y2="358.52545048" stroke="#0000ff"/>
<line class="marker" x1="123.74468085106383" y1="354.890099072" x2="131.74468085106383" y2="354.890099072" stroke="#0000ff"/>
<line class="marker" x1="127.74468085106383" y1="350.890099072" x2="127.74468085106383" y2="358.890099072" stroke="#0000ff"/>
<line class="marker" x1="132.68085106382978" y1="371.594322944" x2="140.68085106382978" y2="371.594322944" stroke="#0000ff"/>
<line class="marker" x1="136.68085106382978" y1="367.594322944" x2="136.68085106382978" y2="375.594322944" stroke="#0000ff"/>
<line class="marker" x1="141.61702127659575" y1="361.992400544" x2="149.61702127659575" y2="361.992400544" stroke="#0000ff"/>
<line class="marker" x1="145.61702127659575" y1="357.992400544" x2="145.61702127659575" y2="365.992400544" stroke="#0000ff"/>
<line class="marker" x1="150.5531914893617" y1="365.443359216" x2="158.5531914893617" y2="365.443359216" stroke="#0000ff"/>
<line class="marker" x1="154.5531914893617" y1="361.443359216" x2="154.5531914893617" y2="369.443359216" stroke="#0000ff"/>
<line class="marker" x1="159.48936170212767" y1="375.018302608" x2="167.48936170212767" y2="375.018302608" stroke="#0000ff"/>
<line class="marker" x1="163.48936170212767" y1="371.018302608" x2="163.48936170212767" y2="379.018302608" stroke="#0000ff"/>
<line class="marker" x1="168.4255319148936" y1="362.89595584" x2="176.4255319148936" y2="362.89595584" stroke="#0000ff"/>
<line class="marker" x1="172.4255319148936" y1="358.89595584" x2="172.4255319148936" y2="366.89595584" stroke="#0000ff"/>
<line class="marker" x1="177.36170212765956" y1="354.26366504" x2="185.36170212765956" y2="354.26366504" stroke="#0000ff"/>
<line class="marker" x1="181.36170212765956" y1="350.26366504" x2="181.36170212765956" y2="358.26366504" stroke="#0000ff"/>
<line class="marker" x1="186.29787234042553" y1="357.536819568" x2="194.29787234042553" y2="357.536819568" stroke="#0000ff"/>
<line class="marker" x1="190.29787234042553" y1="353.536819568" x2="190.29787234042553" y2="361.536819568" stroke="#0000ff"/>
<line class="marker" x1="195.2340425531915" y1="357.85614512" x2="203.2340425531915" y2="357.85614512" stroke="#0000ff"/>
<line class="marker" x1="199.2340425531915" y1="353.85614512" x2="199.2340425531915" y2="361.85614512" stroke="#0000ff"/>
<line class="marker" x1="204.17021276595744" y1="356.68116196799997" x2="212.17021276595744" y2="356.68116196799997" stroke="#0000ff"/>
<line class="marker" x1="208.17021276595744" y1="352.68116196799997" x2="208.17021276595744" y2="360.68116196799997" stroke="#0000ff"/>
<line class="marker" x1="213.1063829787234" y1="365.521159456" x2="221.1063829787234" y2="365.521159456" stroke="#0000ff"/>
<line class="marker" x1="217.1063829787234" y1="361.521159456" x2="217.1063829787234" y2="369.521159456" stroke="#0000ff"/>
<line class="marker" x1="222.04255319148936" y1="345.985752432" x2="230.04255319148936" y2="345.985752432" stroke="#0000ff"/>
<line class="marker" x1="226.04255319148936" y1="341.985752432" x2="226.04255319148936" y2="349.985752432" stroke="#0000ff"/>
<line class="marker" x1="230.9787234042553" y1="355.1618272" x2="238.9787234042553" y2="355.1618272" stroke="#0000ff"/>
<line class="marker" x1="234.9787234042553" y1="351.1618272" x2="234.9787234042553" y2="359.1618272" stroke="#0000ff"/>
<line class="marker" x1="239.91489361702128" y1="350.984406288" x2="247.91489361702128" y2="350.984406288" stroke="#0000ff"/>
<line class="marker" x1="243.91489361702128" y1="346.984406288" x2="243.91489361702128" y2="354.984406288" stroke="#0000ff"/>
<line class="marker" x1="248.85106382978722" y1="351.242103952" x2="256.8510638297872" y2="351.242103952" stroke="#0000ff"/>
<line class="marker" x1="252.85106382978722" y1="347.242103952" x2="252.85106382978722" y2="355.242103952" stroke="#0000ff"/>
<line class="marker" x1="257.78723404255317" y1="352.474461792" x2="265.78723404255317" y2="352.474461792" stroke="#0000ff"/>
<line class="marker" x1="261.78723404255317" y1="348.474461792" x2="261.78723404255317" y2="356.474461792" stroke="#0000ff"/>
<line class="marker" x1="266.7234042553191" y1="343.389223616" x2="274.7234042553191" y2="343.389223616" stroke="#0000ff"/>
<line class="marker" x1="270.7234042553191" y1="339.389223616" x2="270.7234042553191" y2="347.389223616" stroke="#0000ff"/>
<line class="marker" x1="275.6595744680851" y1="345.844860576" x2="283.6595744680851" y2="345.844860576" stroke="#0000ff"/>
<line class="marker" x1="279.6595744680851" y1="341.844860576" x2="279.6595744680851" y2="349.844860576" stroke="#0000ff"/>
<line class="marker" x1="284.59574468085106" y1="340.395388688" x2="292.59574468085106" y2="340.395388688" stroke="#0000ff"/>
<line class="marker" x1="288.59574468085106" y1="336.395388688" x2="288.59574468085106" y2="344.395388688" stroke="#0000ff"/>
<line class="marker" x1="293.531914893617" y1="340.373315952" x2="301.531914893617" y2="340.373315952" stroke="#0000ff"/>
<line class="marker" x1="297.531914893617" y1="336.373315952" x2="297.531914893617" y2="344.373315952" stroke="#0000ff"/>
<line class="marker" x1="302.468085106383" y1="341.295052992" x2="310.468085106383" y2="341.295052992" stroke="#0000ff"/>
<line class="marker" x1="306.468085106383" y1="337.295052992" x2="306.468085106383" y2="345.295052992" stroke="#0000ff"/>
<line class="marker" x1="311.40425531914894" y1="334.688424544" x2="319.40425531914894" y2="334.688424544" stroke="#0000ff"/>
<line class="marker" x1="315.40425531914894" y1="330.688424544" x2="315.40425531914894" y2="338.688424544" stroke="#0000ff"/>
<line class="marker" x1="320.3404255319149" y1="343.926900224" x2="328.3404255319149" y2="343.926900224" stroke="#0000ff"/>
<line class="marker" x1="324.3404255319149" y1="339.926900224" x2="324.3404255319149" y2="347.926900224" stroke="#0000ff"/>
<line class="marker" x1="329.2765957446809" y1="339.91332433599996" x2="337.2765957446809" y2="339.91332433599996" stroke="#0000ff"/>
<line class="marker" x1="333.2765957446809" y1="335.91332433599996" x2="333.2765957446809" y2="343.91332433599996" stroke="#0000ff"/>
<line class="marker" x1="338.2127659574468" y1="331.02669766400004" x2="346.2127659574468" y2="331.02669766400004" stroke="#0000ff"/>
<line class="marker" x1="342.2127659574468" y1="327.02669766400004" x2="342.2127659574468" y2="335.02669766400004" stroke="#0000ff"/>
<line class="marker" x1="347.1489361702128" y1="339.738891392" x2="355.1489361702128" y2="339.738891392" stroke="#0000ff"/>
<line class="marker" x1="351.1489361702128" y1="335.738891392" x2="351.1489361702128" y2="343.738891392" stroke="#0000ff"/>
<line class="marker" x1="356.0851063829787" y1="326.368641632" x2="364.0851063829787" y2="326.368641632" stroke="#0000ff"/>
<line class="marker" x1="360.0851063829787" y1="322.368641632" x2="360.0851063829787" y2="330.368641632" stroke="#0000ff"/>
<line class="marker" x1="365.02127659574467" y1="318.744269856" x2="373.02127659574467" y2="318.744269856" stroke="#0000ff"/>
<line class="marker" x1="369.02127659574467" y1="314.744269856" x2="369.02127659574467" y2="322.744269856" stroke="#0000ff"/>
<line class="marker" x1="373.9574468085106" y1="322.94352752" x2="381.9574468085106" y2="322.94352752" stroke="#0000ff"/>
<line class="marker" x1="377.9574468085106" y1="318.94352752" x2="377.9574468085106" y2="326.94352752" stroke="#0000ff"/>
<line class="marker" x1="382.8936170212766" y1="311.86658987199996" x2="390.8936170212766" y2="311.86658987199996" stroke="#0000ff"/>
<line class="marker" x1="386.8936170212766" y1="307.86658987199996" x2="386.8936170212766" y2="315.86658987199996" stroke="#0000ff"/>
<line class="marker" x1="391.82978723404256" y1="312.14718660799997" x2="399.82978723404256" y2="312.14718660799997" stroke="#0000ff"/>
<line class="marker" x1="395.82978723404256" y1="308.14718660799997" x2="395.82978723404256" y2="316.14718660799997" stroke="#0000ff"/>
<line class="marker" x1="400.7659574468085" y1="311.359556688" x2="408.7659574468085" y2="311.359556688" stroke="#0000ff"/>
<line class="marker" x1="404.7659574468085" y1="307.359556688" x2="404.7659574468085" y2="315.359556688" stroke="#0000ff"/>
<line class="marker" x1="409.70212765957444" y1="299.196644976" x2="417.70212765957444" y2="299.196644976" stroke="#0000ff"/>
<line class="marker" x1="413.70212765957444" y1="295.196644976" x2="413.70212765957444" y2="303.196644976" stroke="#0000ff"/>
<line class="marker" x1="418.63829787234044" y1="296.50086568" x2="426.63829787234044" y2="296.50086568" stroke="#0000ff"/>
<line class="marker" x1="422.63829787234044" y1="292.50086568" x2="422.63829787234044" y2="300.50086568" stroke="#0000ff"/>
<line class="marker" x1="427.57446808510633" y1="311.248833936" x2="435.57446808510633" y2="311.248833936" stroke="#0000ff"/>
<line class="marker" x1="431.57446808510633" y1="307.248833936" x2="431.57446808510633" y2="315.248833936" stroke="#0000ff"/>
<line class="marker" x1="436.51063829787233" y1="315.49413200000004" x2="444.51063829787233" y2="315.49413200000004" stroke="#0000ff"/>
<line class="marker" x1="440.51063829787233" y1="311.49413200000004" x2="440.51063829787233" y2="319.49413200000004" stroke="#0000ff"/>
<line class="marker" x1="445.4468085106383" y1="313.92535976" x2="453.4468085106383" y2="313.92535976" stroke="#0000ff"/>
<line class="marker" x1="449.4468085106383" y1="309.92535976" x2="449.4468085106383" y2="317.92535976" stroke="#0000ff"/>
<line class="marker" x1="454.3829787234043" y1="297.273953184" x2="462.3829787234043" y2="297.273953184" stroke="#0000ff"/>
<line class="marker" x1="458.3829787234043" y1="293.273953184" x2="458.3829787234043" y2="301.273953184" stroke="#0000ff"/>
<line class="marker" x1="463.3191489361702" y1="287.214003088" x2="471.3191489361702" y2="287.214003088" stroke="#0000ff"/>
<line class="marker" x1="467.3191489361702" y1="283.214003088" x2="467.3191489361702" y2="291.214003088" stroke="#0000ff"/>
<line class="marker" x1="472.25531914893617" y1="300.20479292799996" x2="480.25531914893617" y2="300.20479292799996" stroke="#0000ff"/>
<line class="marker" x1="476.25531914893617" y1="296.20479292799996" x2="476.25531914893617" y2="304.20479292799996" stroke="#0000ff"/>
<line class="marker" x1="481.1914893617021" y1="285.81290728" x2="489.1914893617021" y2="285.81290728" stroke="#0000ff"/>
<line class="marker" x1="485.1914893617021" y1="281.81290728" x2="485.1914893617021" y2="289.81290728" stroke="#0000ff"/>
<line class="marker" x1="490.1276595744681" y1="291.631926976" x2="498.1276595744681" y2="291.631926976" stroke="#0000ff"/>
<line class="marker" x1="494.1276595744681" y1="287.631926976" x2="494.1276595744681" y2="295.631926976" stroke="#0000ff"/>
<line class="marker" x1="499.06382978723406" y1="290.527754704" x2="507.06382978723406" y2="290.527754704" stroke="#0000ff"/>
<line class="marker" x1="503.06382978723406" y1="286.527754704" x2="503.06382978723406" y2="294.527754704" stroke="#0000ff"/>
<line class="marker" x1="508.0" y1="291.995120464" x2="516.0" y2="291.995120464" stroke="#0000ff"/>
<line class="marker" x1="512.0" y1="287.995120464" x2="512.0" y2="295.995120464" stroke="#0000ff"/>
<line class="marker" x1="516.936170212766" y1="286.625330416" x2="524.936170212766" y2="286.625330416" stroke="#0000ff"/>
<line class="marker" x1="520.936170212766" y1="282.625330416" x2="520.936170212766" y2="290.625330416" stroke="#0000ff"/>
<line class="marker" x1="525.872340425532" y1="288.70460817599997" x2="533.872340425532" y2="288.70460817599997" stroke="#0000ff"/>
<line class="marker" x1="529.872340425532" y1="284.70460817599997" x2="529.872340425532" y2="292.70460817599997" stroke="#0000ff"/>
<line class="marker" x1="534.8085106382979" y1="283.97419207999997" x2="542.8085106382979" y2="283.97419207999997" stroke="#0000ff"/>
<line class="marker" x1="538.8085106382979" y1="279.97419207999997" x2="538.8085106382979" y2="287.97419207999997" stroke="#0000ff"/>
<line class="marker" x1="543.7446808510638" y1="282.68838896" x2="551.7446808510638" y2="282.68838896" stroke="#0000ff"/>
<line class="marker" x1="547.7446808510638" y1="278.68838896" x2="547.7446808510638" y2="286.68838896" stroke="#0000ff"/>
<line class="marker" x1="552.6808510638298" y1="282.414235136" x2="560.6808510638298" y2="282.414235136" stroke="#0000ff"/>
<line class="marker" x1="556.6808510638298" y1="278.414235136" x2="556.6808510638298" y2="286.414235136" stroke="#0000ff"/>
<line class="marker" x1="561.6170212765958" y1="283.058015168" x2="569.6170212765958" y2="283.058015168" stroke="#0000ff"/>
<line class="marker" x1="565.6170212765958" y1="279.058015168" x2="565.6170212765958" y2="287.058015168" stroke="#0000ff"/>
<line class="marker" x1="570.5531914893618" y1="284.166480624" x2="578.5531914893618" y2="284.166480624" stroke="#0000ff"/>
<line class="marker" x1="574.5531914893618" y1="280.166480624" x2="574.5531914893618" y2="288.166480624" stroke="#0000ff"/>
<line class="marker" x1="579.4893617021277" y1="280.26493441599996" x2="587.4893617021277" y2="280.26493441599996" stroke="#0000ff"/>
<line class="marker" x1="583.4893617021277" y1="276.26493441599996" x2="583.4893617021277" y2="284.26493441599996" stroke="#0000ff"/>
<line class="marker" x1="588.4255319148936" y1="277.978143616" x2="596.4255319148936" y2="277.978143616" stroke="#0000ff"/>
<line class="marker" x1="592.4255319148936" y1="273.978143616" x2="592.4255319148936" y2="281.978143616" stroke="#0000ff"/>
<line class="marker" x1="597.3617021276596" y1="277.541590464" x2="605.3617021276596" y2="277.541590464" stroke="#0000ff"/>
<line class="marker" x1="601.3617021276596" y1="273.541590464" x2="601.3617021276596" y2="281.541590464" stroke="#0000ff"/>
<line class="marker" x1="606.2978723404256" y1="281.89964576" x2="614.2978723404256" y2="281.89964576" stroke="#0000ff"/>
<line class="marker" x1="610.2978723404256" y1="277.89964576" x2="610.2978723404256" y2="285.89964576" stroke="#0000ff"/>
<line class="marker" x1="615.2340425531914" y1="270.074062592" x2="623.2340425531914" y2="270.074062592" stroke="#0000ff"/>
<line class="marker" x1="619.2340425531914" y1="266.074062592" x2="619.2340425531914" y2="274.074062592" stroke="#0000ff"/>
<line class="marker" x1="624.1702127659574" y1="261.529634672" x2="632.1702127659574" y2="261.529634672" stroke="#0000ff"/>
<line class="marker" x1="628.1702127659574" y1="257.529634672" x2="628.1702127659574" y2="265.529634672" stroke="#0000ff"/>
<line class="marker" x1="633.1063829787234" y1="266.385736944" x2="641.1063829787234" y2="266.385736944" stroke="#0000ff"/>
<line class="marker" x1="637.1063829787234" y1="262.385736944" x2="637.1063829787234" y2="270.385736944" stroke="#0000ff"/>
<line class="marker" x1="642.0425531914893" y1="263.63517407999996" x2="650.0425531914893" y2="263.63517407999996" stroke="#0000ff"/>
<line class="marker" x1="646.0425531914893" y1="259.63517407999996" x2="646.0425531914893" y2="267.63517407999996" stroke="#0000ff"/>
<line class="marker" x1="650.9787234042553" y1="257.890666528" x2="658.9787234042553" y2="257.890666528" stroke="#0000ff"/>
<line class="marker" x1="654.9787234042553" y1="253.890666528" x2="654.9787234042553" y2="261.890666528" stroke="#0000ff"/>
<line class="marker" x1="659.9148936170212" y1="269.10211035199995" x2="667.9148936170212" y2="269.10211035199995" stroke="#0000ff"/>
<line class="marker" x1="663.9148936170212" y1="265.10211035199995" x2="663.9148936170212" y2="273.10211035199995" stroke="#0000ff"/>
<line class="marker" x1="668.8510638297873" y1="259.564075328" x2="676.8510638297873" y2="259.564075328" stroke="#0000ff"/>
<line class="marker" x1="672.8510638297873" y1="255.564075328" x2="672.8510638297873" y2="263.564075328" stroke="#0000ff"/>
<line class="marker" x1="677.7872340425532" y1="251.779695424" x2="685.7872340425532" y2="251.779695424" stroke="#0000ff"/>
<line class="marker" x1="681.7872340425532" y1="247.779695424" x2="681.7872340425532" y2="255.779695424" stroke="#0000ff"/>
<line class="marker" x1="686.7234042553191" y1="260.55327870400004" x2="694.7234042553191" y2="260.55327870400004" stroke="#0000ff"/>
<line class="marker" x1="690.7234042553191" y1="256.55327870400004" x2="690.7234042553191" y2="264.55327870400004" stroke="#0000ff"/>
<line class="marker" x1="695.6595744680851" y1="248.69248844799995" x2="703.6595744680851" y2="248.69248844799995" stroke="#0000ff"/>
<line class="marker" x1="699.6595744680851" y1="244.69248844799995" x2="699.6595744680851" y2="252.69248844799995" stroke="#0000ff"/>
<line class="marker" x1="704.5957446808511" y1="236.895577728" x2="712.5957446808511" y2="236.895577728" stroke="#0000ff"/>
<line class="marker" x1="708.5957446808511" y1="232.895577728" x2="708.5957446808511" y2="240.895577728" stroke="#0000ff"/>
<line class="marker" x1="713.531914893617" y1="216.858478128" x2="721.531914893617" y2="216.858478128" stroke="#0000ff"/>
<line class="marker" x1="717.531914893617" y1="212.858478128" x2="717.531914893617" y2="220.858478128" stroke="#0000ff"/>
<line class="marker" x1="722.468085106383" y1="214.34053982400002" x2="730.468085106383" y2="214.34053982400002" stroke="#0000ff"/>
<line class="marker" x1="726.468085106383" y1="210.34053982400002" x2="726.468085106383" y2="218.34053982400002" stroke="#0000ff"/>
<line class="marker" x1="731.4042553191489" y1="224.827395952" x2="739.4042553191489" y2="224.827395952" stroke="#0000ff"/>
<line class="marker" x1="735.4042553191489" y1="220.827395952" x2="735.4042553191489" y2="228.827395952" stroke="#0000ff"/>
<line class="marker" x1="740.3404255319149" y1="213.715117152" x2="748.3404255319149" y2="213.715117152" stroke="#0000ff"/>
<line class="marker" x1="744.3404255319149" y1="209.715117152" x2="744.3404255319149" y2="217.715117152" stroke="#0000ff"/>
<line class="marker" x1="749.2765957446809" y1="199.79908736000004" x2="757.2765957446809" y2="199.79908736000004" stroke="#0000ff"/>
<line class="marker" x1="753.2765957446809" y1="195.79908736000004" x2="753.2765957446809" y2="203.79908736000004" stroke="#0000ff"/>
<line class="marker" x1="758.2127659574468" y1="223.44455872" x2="766.2127659574468" y2="223.44455872" stroke="#0000ff"/>
<line class="marker" x1="762.2127659574468" y1="219.44455872" x2="762.2127659574468" y2="227.44455872" stroke="#0000ff"/>
<line class="marker" x1="767.1489361702127" y1="219.93424575999998" x2="775.1489361702127" y2="219.93424575999998" stroke="#0000ff"/>
<line class="marker" x1="771.1489361702127" y1="215.93424575999998" x2="771.1489361702127" y2="223.93424575999998" stroke="#0000ff"/>
<line class="marker" x1="776.0851063829788" y1="208.94660335999998" x2="784.0851063829788" y2="208.94660335999998" stroke="#0000ff"/>
<line class="marker" x1="780.0851063829788" y1="204.94660335999998" x2="780.0851063829788" y2="212.94660335999998" stroke="#0000ff"/>
<line class="marker" x1="785.0212765957447" y1="224.18175784000002" x2="793.0212765957447" y2="224.18175784000002" stroke="#0000ff"/>
<line class="marker" x1="789.0212765957447" y1="220.18175784000002" x2="789.0212765957447" y2="228.18175784000002" stroke="#0000ff"/>
<line class="marker" x1="793.9574468085107" y1="179.412508" x2="801.9574468085107" y2="179.412508" stroke="#0000ff"/>
<line class="marker" x1="797.9574468085107" y1="175.412508" x2="797.9574468085107" y2="183.412508" stroke="#0000ff"/>
<line class="marker" x1="802.8936170212766" y1="216.44618664" x2="810.8936170212766" y2="216.44618664" stroke="#0000ff"/>
<line class="marker" x1="806.8936170212766" y1="212.44618664" x2="806.8936170212766" y2="220.44618664" stroke="#0000ff"/>
<line class="marker" x1="811.8297872340426" y1="178.19409359999997" x2="819.8297872340426" y2="178.19409359999997" stroke="#0000ff"/>
<line class="marker" x1="815.8297872340426" y1="174.19409359999997" x2="815.8297872340426" y2="182.19409359999997" stroke="#0000ff"/>
<line class="marker" x1="820.7659574468086" y1="199.04227648" x2="828.7659574468086" y2="199.04227648" stroke="#0000ff"/>
<line class="marker" x1="824.7659574468086" y1="195.04227648" x2="824.7659574468086" y2="203.04227648" stroke="#0000ff"/>
<line class="marker" x1="829.7021276595744" y1="140.58775784" x2="837.7021276595744" y2="140.58775784" stroke="#0000ff"/>
<line class="marker" x1="833.7021276595744" y1="136.58775784" x2="833.7021276595744" y2="144.58775784" stroke="#0000ff"/>
<line class="marker" x1="838.6382978723404" y1="150.02492264" x2="846.6382978723404" y2="150.02492264" stroke="#0000ff"/>
<line class="marker" x1="842.6382978723404" y1="146.02492264" x2="842.6382978723404" y2="154.02492264" stroke="#0000ff"/>
<line class="marker" x1="847.5744680851064" y1="139.05118055999998" x2="855.5744680851064" y2="139.05118055999998" stroke="#0000ff"/>
<line class="marker" x1="851.5744680851064" y1="135.05118055999998" x2="851.5744680851064" y2="143.05118055999998" stroke="#0000ff"/>
<line class="marker" x1="856.5106382978723" y1="204.78297143999998" x2="864.5106382978723" y2="204.78297143999998" stroke="#0000ff"/>
<line class="marker" x1="860.5106382978723" y1="200.78297143999998" x2="860.5106382978723" y2="208.78297143999998" stroke="#0000ff"/>
<line class="marker" x1="865.4468085106382" y1="117.05621343999996" x2="873.4468085106382" y2="117.05621343999996" stroke="#0000ff"/>
<line class="marker" x1="869.4468085106382" y1="113.05621343999996" x2="869.4468085106382" y2="121.05621343999996" stroke="#0000ff"/>
<line class="marker" x1="874.3829787234042" y1="124.61189192" x2="882.3829787234042" y2="124.61189192" stroke="#0000ff"/>
<line class="marker" x1="878.3829787234042" y1="120.61189192" x2="878.3829787234042" y2="128.61189192" stroke="#0000ff"/>
<line class="marker" x1="883.3191489361702" y1="148.30408576000002" x2="891.3191489361702" y2="148.30408576000002" stroke="#0000ff"/>
<line class="marker" x1="887.3191489361702" y1="144.30408576000002" x2="887.3191489361702" y2="152.30408576000002" stroke="#0000ff"/>
<line class="marker" x1="892.2553191489362" y1="137.66146607999997" x2="900.2553191489362" y2="137.66146607999997" stroke="#0000ff"/>
<line class="marker" x1="896.2553191489362" y1="133.66146607999997" x2="896.2553191489362" y2="141.66146607999997" stroke="#0000ff"/>
<line class="marker" x1="901.1914893617021" y1="182.53462336" x2="909.1914893617021" y2="182.53462336" stroke="#0000ff"/>
<line class="marker" x1="905.1914893617021" y1="178.53462336" x2="905.1914893617021" y2="186.53462336" stroke="#0000ff"/>
<line class="marker" x1="910.1276595744681" y1="93.70853272000005" x2="918.1276595744681" y2="93.70853272000005" stroke="#0000ff"/>
<line class="marker" x1="914.1276595744681" y1="89.70853272000005" x2="914.1276595744681" y2="97.70853272000005" stroke="#0000ff"/>
<line class="marker" x1="919.0638297872341" y1="103.91122648000004" x2="927.0638297872341" y2="103.91122648000004" stroke="#0000ff"/>
<line class="marker" x1="923.0638297872341" y1="99.91122648000004" x2="923.0638297872341" y2="107.91122648000004" stroke="#0000ff"/>
<line class="marker" x1="928.0" y1="95.28862592000002" x2="936.0" y2="95.28862592000002" stroke="#0000ff"/>
<line class="marker" x1="932.0" y1="91.28862592000002" x2="932.0" y2="99.28862592000002" stroke="#0000ff"/>
<text class="legend" x="812" y="94" text-anchor="start">Delay</text>
<line x1="868" y1="90" x2="918" y2="90" stroke="#0000ff" stroke-width="2"/>
<line class="marker" x1="889.0" y1="90" x2="897.0" y2="90" stroke="#0000ff"/>
<line class="marker" x1="893.0" y1="86" x2="893.0" y2="94" stroke="#0000ff"/>
</svg>