<svg xmlns="http://www.w3.org/2000/svg" width="960" height="540" viewBox="0 0 960 540">
<style>
text { font-family: Helvetica, Arial, sans-serif; fill: #222222; }
.header { font-size: 17px; font-weight: 400; }
.subtitle { font-size: 15px; font-weight: 400; }
.axis-label { font-size: 13px; font-weight: 400; }
.tick { font-size: 11px; }
.grid { stroke: #bdbdbd; stroke-width: 1; stroke-dasharray: 1.5 2; }
.axis { stroke: #000000; stroke-width: 1; }
.legend { font-size: 11px; }
.line { fill: none; stroke-width: 1.5; }
.marker { stroke-width: 1.2; }
.tick-mark { stroke: #000000; stroke-width: 1; }
</style>
<rect width="960" height="540" fill="#ffffff"/>
<text class="header" x="480.0" y="22" text-anchor="middle">Network Performance vs Node Count</text>
<text class="subtitle" x="480.0" y="48" text-anchor="middle">Packet Loss Ratio vs Node Count</text>
<line class="grid" x1="92" y1="464.00000000000006" x2="932" y2="464.00000000000006"/>
<text class="tick" x="80" y="468.00000000000006" text-anchor="end">0.35</text>
<line class="grid" x1="92" y1="408.0" x2="932" y2="408.0"/>
<text class="tick" x="80" y="412.0" text-anchor="end">0.4</text>
<line class="grid" x1="92" y1="352.0" x2="932" y2="352.0"/>
<text class="tick" x="80" y="356.0" text-anchor="end">0.45</text>
<line class="grid" x1="92" y1="296.00000000000006" x2="932" y2="296.00000000000006"/>
<text class="tick" x="80" y="300.00000000000006" text-anchor="end">0.5</text>
<line class="grid" x1="92" y1="240.0" x2="932" y2="240.0"/>
<text class="tick" x="80" y="244.0" text-anchor="end">0.55</text>
<line class="grid" x1="92" y1="184.00000000000006" x2="932" y2="184.00000000000006"/>
<text class="tick" x="80" y="188.00000000000006" text-anchor="end">0.6</text>
<line class="grid" x1="92" y1="128.00000000000006" x2="932" y2="128.00000000000006"/>
<text class="tick" x="80" y="132.00000000000006" text-anchor="end">0.65</text>
<line class="grid" x1="92" y1="72.00000000000011" x2="932" y2="72.00000000000011"/>
<text class="tick" x="80" y="76.00000000000011" text-anchor="end">0.7</text>
<line class="grid" x1="92.0" y1="72" x2="92.0" y2="464"/>
<text class="tick" x="92.0" y="484" text-anchor="middle">10</text>
<line class="grid" x1="261.78723404255317" y1="72" x2="261.78723404255317" y2="464"/>
<text class="tick" x="261.78723404255317" y="484" text-anchor="middle">200</text>
<line class="grid" x1="440.51063829787233" y1="72" x2="440.51063829787233" y2="464"/>
<text class="tick" x="440.51063829787233" y="484" text-anchor="middle">400</text>
<line class="grid" x1="619.2340425531914" y1="72" x2="619.2340425531914" y2="464"/>
<text class="tick" x="619.2340425531914" y="484" text-anchor="middle">600</text>
<line class="grid" x1="797.9574468085107" y1="72" x2="797.9574468085107" y2="464"/>
<text class="tick" x="797.9574468085107" y="484" text-anchor="middle">800</text>
<line class="grid" x1="932.0" y1="72" x2="932.0" y2="464"/>
<text class="tick" x="932.0" y="484" text-anchor="middle">950</text>
<line class="axis" x1="92" y1="464" x2="932" y2="464"/>
<line class="axis" x1="92" y1="72" x2="92" y2="464"/>
<line class="axis" x1="92" y1="72" x2="932" y2="72"/>
<line class="axis" x1="932" y1="72" x2="932" y2="464"/>
<line class="tick-mark" x1="92" y1="464.00000000000006" x2="98" y2="464.00000000000006"/>
<line class="tick-mark" x1="926" y1="464.00000000000006" x2="932" y2="464.00000000000006"/>
<line class="tick-mark" x1="92" y1="408.0" x2="98" y2="408.0"/>
<line class="tick-mark" x1="926" y1="408.0" x2="932" y2="408.0"/>
<line class="tick-mark" x1="92" y1="352.0" x2="98" y2="352.0"/>
<line class="tick-mark" x1="926" y1="352.0" x2="932" y2="352.0"/>
<line class="tick-mark" x1="92" y1="296.00000000000006" x2="98" y2="296.00000000000006"/>
<line class="tick-mark" x1="926" y1="296.00000000000006" x2="932" y2="296.00000000000006"/>
<line class="tick-mark" x1="92" y1="240.0" x2="98" y2="240.0"/>
<line class="tick-mark" x1="926" y1="240.0" x2="932" y2="240.0"/>
<line class="tick-mark" x1="92" y1="184.00000000000006" x2="98" y2="184.00000000000006"/>
<line class="tick-mark" x1="926" y1="184.00000000000006" x2="932" y2="184.00000000000006"/>
<line class="tick-mark" x1="92" y1="128.00000000000006" x2="98" y2="128.00000000000006"/>
<line class="tick-mark" x1="926" y1="128.00000000000006" x2="932" y2="128.00000000000006"/>
<line class="tick-mark" x1="92" y1="72.00000000000011" x2="98" y2="72.00000000000011"/>
<line class="tick-mark" x1="926" y1="72.00000000000011" x2="932" y2="72.00000000000011"/>
<line class="tick-mark" x1="92.0" y1="458" x2="92.0" y2="464"/>
<line class="tick-mark" x1="92.0" y1="72" x2="92.0" y2="78"/>
<line class="tick-mark" x1="261.78723404255317" y1="458" x2="261.78723404255317" y2="464"/>
<line class="tick-mark" x1="261.78723404255317" y1="72" x2="261.78723404255317" y2="78"/>
<line class="tick-mark" x1="440.51063829787233" y1="458" x2="440.51063829787233" y2="464"/>
<line class="tick-mark" x1="440.51063829787233" y1="72" x2="440.51063829787233" y2="78"/>
<line class="tick-mark" x1="619.2340425531914" y1="458" x2="619.2340425531914" y2="464"/>
<line class="tick-mark" x1="619.2340425531914" y1="72" x2="619.2340425531914" y2="78"/>
<line class="tick-mark" x1="797.9574468085107" y1="458" x2="797.9574468085107" y2="464"/>
<line class="tick-mark" x1="797.9574468085107" y1="72" x2="797.9574468085107" y2="78"/>
<line class="tick-mark" x1="932.0" y1="458" x2="932.0" y2="464"/>
<line class="tick-mark" x1="932.0" y1="72" x2="932.0" y2="78"/>
<text class="axis-label" x="512.0" y="524" text-anchor="middle">Node Count</text>
<text class="axis-label" x="20" y="268.0" text-anchor="middle" transform="rotate(-90 20 268.0)">Packet Loss Ratio</text>
<polyline class="line" points="92.0,395.12000000000006 100.93617021276596,397.64000000000004 109.87234042553192,394.746592 118.80851063829788,398.06000000000006 127.74468085106383,397.696 136.68085106382978,387.186592 145.61702127659575,395.19996800000007 154.5531914893617,391.12988800000005 163.48936170212767,393.7513600000001 172.4255319148936,391.87200000000007 181.36170212765956,386.92339200000004 190.29787234042553,390.313632 199.2340425531915,389.864736 208.17021276595744,389.60019200000005 217.1063829787234,393.36540800000006 226.04255319148936,385.32022400000005 234.9787234042553,390.936352 243.91489361702128,389.924544 252.85106382978722,385.68848 261.78723404255317,379.16 270.7234042553191,382.07984000000005 279.6595744680851,380.3053120000001 288.59574468085106,378.63628800000004 297.531914893617,375.893408 306.468085106383,380.6272000000001 315.40425531914894,372.95676800000007 324.3404255319149,372.42947200000003 333.2765957446809,373.900032 342.2127659574468,372.31456000000003 351.1489361702128,372.51459200000005 360.0851063829787,365.349504 369.02127659574467,365.2652800000001 377.9574468085106,361.774688 386.8936170212766,357.040224 395.82978723404256,360.752128 404.7659574468085,352.59113600000006 413.70212765957444,347.64118400000007 422.63829787234044,347.80022400000007 431.57446808510633,350.95190400000007 440.51063829787233,347.91200000000003 449.4468085106383,347.73840000000007 458.3829787234043,338.106848 467.3191489361702,333.75475200000005 476.25531914893617,333.9906240000001 485.1914893617021,329.961088 494.1276595744681,333.60512000000006 503.06382978723406,327.20499200000006 512.0,320.51142400000003 520.936170212766,312.8112000000001 529.872340425532,311.22080000000005 538.8085106382979,307.94659200000007 547.7446808510638,302.321728 556.6808510638298,299.64537600000006 565.6170212765958,295.7200000000001 574.5531914893618,294.76800000000003 583.4893617021277,284.280096 592.4255319148936,278.53180800000007 601.3617021276596,271.36 610.2978723404256,273.1634240000001 619.2340425531914,265.2465920000001 628.1702127659574,249.694496 637.1063829787234,254.4065600000001 646.0425531914893,247.07548800000004 654.9787234042553,239.86000000000007 663.9148936170212,237.57027200000002 672.8510638297873,235.03638400000006 681.7872340425532,225.47337600000006 690.7234042553191,225.349504 699.6595744680851,218.5336320000001 708.5957446808511,210.2561600000001 717.531914893617,203.1428160000001 726.468085106383,187.57772800000004 735.4042553191489,200.040416 744.3404255319149,192.91452800000002 753.2765957446809,180.9309760000001 762.2127659574468,193.91065600000007 771.1489361702127,183.8544 780.0851063829788,176.46128000000004 789.0212765957447,185.77184000000005 797.9574468085107,176.50944000000004 806.8936170212766,183.10176000000013 815.8297872340426,165.8336000000001 824.7659574468086,171.31600000000003 833.7021276595744,145.56720000000007 842.6382978723404,157.68 851.5744680851064,153.98176000000012 860.5106382978723,163.75600000000003 869.4468085106382,132.3904000000001 878.3829787234042,136.5568 887.3191489361702,143.18272000000002 896.2553191489362,141.04576000000003 905.1914893617021,147.87440000000004 914.1276595744681,116.61968000000007 923.0638297872341,132.43856000000005 932.0,115.53215999999998" stroke="#ff0000"/>
<line class="marker" x1="88.0" y1="395.12000000000006" x2="96.0" y2="395.12000000000006" stroke="#ff0000"/>
<line class="marker" x1="92.0" y1="391.12000000000006" x2="92.0" y2="399.12000000000006" stroke="#ff0000"/>
<line class="marker" x1="96.93617021276596" y1="397.64000000000004" x2="104.93617021276596" y2="397.64000000000004" stroke="#ff0000"/>
<line class="marker" x1="100.93617021276596" y1="393.64000000000004" x2="100.93617021276596" y2="401.64000000000004" stroke="#ff0000"/>
<line class="marker" x1="105.87234042553192" y1="394.746592" x2="113.87234042553192" y2="394.746592" stroke="#ff0000"/>
<line class="marker" x1="109.87234042553192" y1="390.746592" x2="109.87234042553192" y2="398.746592" stroke="#ff0000"/>
<line class="marker" x1="114.80851063829788" y1="398.06000000000006" x2="122.80851063829788" y2="398.06000000000006" stroke="#ff0000"/>
<line class="marker" x1="118.80851063829788" y1="394.06000000000006" x2="118.80851063829788" y2="402.06000000000006" stroke="#ff0000"/>
<line class="marker" x1="123.74468085106383" y1="397.696" x2="131.74468085106383" y2="397.696" stroke="#ff0000"/>
<line class="marker" x1="127.74468085106383" y1="393.696" x2="127.74468085106383" y2="401.696" stroke="#ff0000"/>
<line class="marker" x1="132.68085106382978" y1="387.186592" x2="140.68085106382978" y2="387.186592" stroke="#ff0000"/>
<line class="marker" x1="136.68085106382978" y1="383.186592" x2="136.68085106382978" y2="391.186592" stroke="#ff0000"/>
<line class="marker" x1="141.61702127659575" y1="395.19996800000007" x2="149.61702127659575" y2="395.19996800000007" stroke="#ff0000"/>
<line class="marker" x1="145.61702127659575" y1="391.19996800000007" x2="145.61702127659575" y2="399.19996800000007" stroke="#ff0000"/>
<line class="marker" x1="150.5531914893617" y1="391.12988800000005" x2="158.5531914893617" y2="391.12988800000005" stroke="#ff0000"/>
<line class="marker" x1="154.5531914893617" y1="387.12988800000005" x2="154.5531914893617" y2="395.12988800000005" stroke="#ff0000"/>
<line class="marker" x1="159.48936170212767" y1="393.7513600000001" x2="167.48936170212767" y2="393.7513600000001" stroke="#ff0000"/>
<line class="marker" x1="163.48936170212767" y1="389.7513600000001" x2="163.48936170212767" y2="397.7513600000001" stroke="#ff0000"/>
<line class="marker" x1="168.4255319148936" y1="391.87200000000007" x2="176.4255319148936" y2="391.87200000000007" stroke="#ff0000"/>
<line class="marker" x1="172.4255319148936" y1="387.87200000000007" x2="172.4255319148936" y2="395.87200000000007" stroke="#ff0000"/>
<line class="marker" x1="177.36170212765956" y1="386.92339200000004" x2="185.36170212765956" y2="386.92339200000004" stroke="#ff0000"/>
<line class="marker" x1="181.36170212765956" y1="382.92339200000004" x2="181.36170212765956" y2="390.92339200000004" stroke="#ff0000"/>
<line class="marker" x1="186.29787234042553" y1="390.313632" x2="194.29787234042553" y2="390.313632" stroke="#ff0000"/>
<line class="marker" x1="190.29787234042553" y1="386.313632" x2="190.29787234042553" y2="394.313632" stroke="#ff0000"/>
<line class="marker" x1="195.2340425531915" y1="389.864736" x2="203.2340425531915" y2="389.864736" stroke="#ff0000"/>
<line class="marker" x1="199.2340425531915" y1="385.864736" x2="199.2340425531915" y2="393.864736" stroke="#ff0000"/>
<line class="marker" x1="204.17021276595744" y1="389.60019200000005" x2="212.17021276595744" y2="389.60019200000005" stroke="#ff0000"/>
<line class="marker" x1="208.17021276595744" y1="385.60019200000005" x2="208.17021276595744" y2="393.60019200000005" stroke="#ff0000"/>
<line class="marker" x1="213.1063829787234" y1="393.36540800000006" x2="221.1063829787234" y2="393.36540800000006" stroke="#ff0000"/>
<line class="marker" x1="217.1063829787234" y1="389.36540800000006" x2="217.1063829787234" y2="397.36540800000006" stroke="#ff0000"/>
<line class="marker" x1="222.04255319148936" y1="385.32022400000005" x2="230.04255319148936" y2="385.32022400000005" stroke="#ff0000"/>
<line class="marker" x1="226.04255319148936" y1="381.32022400000005" x2="226.04255319148936" y2="389.32022400000005" stroke="#ff0000"/>
<line class="marker" x1="230.9787234042553" y1="390.936352" x2="238.9787234042553" y2="390.936352" stroke="#ff0000"/>
<line class="marker" x1="234.9787234042553" y1="386.936352" x2="234.9787234042553" y2="394.936352" stroke="#ff0000"/>
<line class="marker" x1="239.91489361702128" y1="389.924544" x2="247.91489361702128" y2="389.924544" stroke="#ff0000"/>
<line class="marker" x1="243.91489361702128" y1="385.924544" x2="243.91489361702128" y2="393.924544" stroke="#ff0000"/>
<line class="marker" x1="248.85106382978722" y1="385.68848" x2="256.8510638297872" y2="385.68848" stroke="#ff0000"/>
<line class="marker" x1="252.85106382978722" y1="381.68848" x2="252.85106382978722" y2="389.68848" stroke="#ff0000"/>
<line class="marker" x1="257.78723404255317" y1="379.16" x2="265.78723404255317" y2="379.16" stroke="#ff0000"/>
<line class="marker" x1="261.78723404255317" y1="375.16" x2="261.78723404255317" y2="383.16" stroke="#ff0000"/>
<line class="marker" x1="266.7234042553191" y1="382.07984000000005" x2="274.7234042553191" y2="382.07984000000005" stroke="#ff0000"/>
<line class="marker" x1="270.7234042553191" y1="378.07984000000005" x2="270.7234042553191" y2="386.07984000000005" stroke="#ff0000"/>
<line class="marker" x1="275.6595744680851" y1="380.3053120000001" x2="283.6595744680851" y2="380.3053120000001" stroke="#ff0000"/>
<line class="marker" x1="279.6595744680851" y1="376.3053120000001" x2="279.6595744680851" y2="384.3053120000001" stroke="#ff0000"/>
<line class="marker" x1="284.59574468085106" y1="378.63628800000004" x2="292.59574468085106" y2="378.63628800000004" stroke="#ff0000"/>
<line class="marker" x1="288.59574468085106" y1="374.63628800000004" x2="288.59574468085106" y2="382.63628800000004" stroke="#ff0000"/>
<line class="marker" x1="293.531914893617" y1="375.893408" x2="301.531914893617" y2="375.893408" stroke="#ff0000"/>
<line class="marker" x1="297.531914893617" y1="371.893408" x2="297.531914893617" y2="379.893408" stroke="#ff0000"/>
<line class="marker" x1="302.468085106383" y1="380.6272000000001" x2="310.468085106383" y2="380.6272000000001" stroke="#ff0000"/>
<line class="marker" x1="306.468085106383" y1="376.6272000000001" x2="306.468085106383" y2="384.6272000000001" stroke="#ff0000"/>
<line class="marker" x1="311.40425531914894" y1="372.95676800000007" x2="319.40425531914894" y2="372.95676800000007" stroke="#ff0000"/>
<line class="marker" x1="315.40425531914894" y1="368.95676800000007" x2="315.40425531914894" y2="376.95676800000007" stroke="#ff0000"/>
<line class="marker" x1="320.3404255319149" y1="372.42947200000003" x2="328.3404255319149" y2="372.42947200000003" stroke="#ff0000"/>
<line class="marker" x1="324.3404255319149" y1="368.42947200000003" x2="324.3404255319149" y2="376.42947200000003" stroke="#ff0000"/>
<line class="marker" x1="329.2765957446809" y1="373.900032" x2="337.2765957446809" y2="373.900032" stroke="#ff0000"/>
<line class="marker" x1="333.2765957446809" y1="369.900032" x2="333.2765957446809" y2="377.900032" stroke="#ff0000"/>
<line class="marker" x1="338.2127659574468" y1="372.31456000000003" x2="346.2127659574468" y2="372.31456000000003" stroke="#ff0000"/>
<line class="marker" x1="342.2127659574468" y1="368.31456000000003" x2="342.2127659574468" y2="376.31456000000003" stroke="#ff0000"/>
<line class="marker" x1="347.1489361702128" y1="372.51459200000005" x2="355.1489361702128" y2="372.51459200000005" stroke="#ff0000"/>
<line class="marker" x1="351.1489361702128" y1="368.51459200000005" x2="351.1489361702128" y2="376.51459200000005" stroke="#ff0000"/>
<line class="marker" x1="356.0851063829787" y1="365.349504" x2="364.0851063829787" y2="365.349504" stroke="#ff0000"/>
<line class="marker" x1="360.0851063829787" y1="361.349504" x2="360.0851063829787" y2="369.349504" stroke="#ff0000"/>
<line class="marker" x1="365.02127659574467" y1="365.2652800000001" x2="373.02127659574467" y2="365.2652800000001" stroke="#ff0000"/>
<line class="marker" x1="369.02127659574467" y1="361.2652800000001" x2="369.02127659574467" y2="369.2652800000001" stroke="#ff0000"/>
<line class="marker" x1="373.9574468085106" y1="361.774688" x2="381.9574468085106" y2="361.774688" stroke="#ff0000"/>
<line class="marker" x1="377.9574468085106" y1="357.774688" x2="377.9574468085106" y2="365.774688" stroke="#ff0000"/>
<line class="marker" x1="382.8936170212766" y1="357.040224" x2="390.8936170212766" y2="357.040224" stroke="#ff0000"/>
<line class="marker" x1="386.8936170212766" y1="353.040224" x2="386.8936170212766" y2="361.040224" stroke="#ff0000"/>
<line class="marker" x1="391.82978723404256" y1="360.752128" x2="399.82978723404256" y2="360.752128" stroke="#ff0000"/>
<line class="marker" x1="395.82978723404256" y1="356.752128" x2="395.82978723404256" y2="364.752128" stroke="#ff0000"/>
<line class="marker" x1="400.7659574468085" y1="352.59113600000006" x2="408.7659574468085" y2="352.59113600000006" stroke="#ff0000"/>
<line class="marker" x1="404.7659574468085" y1="348.59113600000006" x2="404.7659574468085" y2="356.59113600000006" stroke="#ff0000"/>
<line class="marker" x1="409.70212765957444" y1="347.64118400000007" x2="417.70212765957444" y2="347.64118400000007" stroke="#ff0000"/>
<line class="marker" x1="413.70212765957444" y1="343.64118400000007" x2="413.70212765957444" y2="351.64118400000007" stroke="#ff0000"/>
<line class="marker" x1="418.63829787234044" y1="347.80022400000007" x2="426.63829787234044" y2="347.80022400000007" stroke="#ff0000"/>
<line class="marker" x1="422.63829787234044" y1="343.80022400000007" x2="422.63829787234044" y2="351.80022400000007" stroke="#ff0000"/>
<line class="marker" x1="427.57446808510633" y1="350.95190400000007" x2="435.57446808510633" y2="350.95190400000007" stroke="#ff0000"/>
<line class="marker" x1="431.57446808510633" y1="346.95190400000007" x2="431.57446808510633" y2="354.95190400000007" stroke="#ff0000"/>
<line class="marker" x1="436.51063829787233" y1="347.91200000000003" x2="444.51063829787233" y2="347.91200000000003" stroke="#ff0000"/>
<line class="marker" x1="440.51063829787233" y1="343.91200000000003" x2="440.51063829787233" y2="351.91200000000003" stroke="#ff0000"/>
<line class="marker" x1="445.4468085106383" y1="347.73840000000007" x2="453.4468085106383" y2="347.73840000000007" stroke="#ff0000"/>
<line class="marker" x1="449.4468085106383" y1="343.73840000000007" x2="449.4468085106383" y2="351.73840000000007" stroke="#ff0000"/>
<line class="marker" x1="454.3829787234043" y1="338.106848" x2="462.3829787234043" y2="338.106848" stroke="#ff0000"/>
<line class="marker" x1="458.3829787234043" y1="334.106848" x2="458.3829787234043" y2="342.106848" stroke="#ff0000"/>
<line class="marker" x1="463.3191489361702" y1="333.75475200000005" x2="471.3191489361702" y2="333.75475200000005" stroke="#ff0000"/>
<line class="marker" x1="467.3191489361702" y1="329.75475200000005" x2="467.3191489361702" y2="337.75475200000005" stroke="#ff0000"/>
<line class="marker" x1="472.25531914893617" y1="333.9906240000001" x2="480.25531914893617" y2="333.9906240000001" stroke="#ff0000"/>
<line class="marker" x1="476.25531914893617" y1="329.9906240000001" x2="476.25531914893617" y2="337.9906240000001" stroke="#ff0000"/>
<line class="marker" x1="481.1914893617021" y1="329.961088" x2="489.1914893617021" y2="329.961088" stroke="#ff0000"/>
<line class="marker" x1="485.1914893617021" y1="325.961088" x2="485.1914893617021" y2="333.961088" stroke="#ff0000"/>
<line class="marker" x1="490.1276595744681" y1="333.60512000000006" x2="498.1276595744681" y2="333.60512000000006" stroke="#ff0000"/>
<line class="marker" x1="494.1276595744681" y1="329.60512000000006" x2="494.1276595744681" y2="337.60512000000006" stroke="#ff0000"/>
<line class="marker" x1="499.06382978723406" y1="327.20499200000006" x2="507.06382978723406" y2="327.20499200000006" stroke="#ff0000"/>
<line class="marker" x1="503.06382978723406" y1="323.20499200000006" x2="503.06382978723406" y2="331.20499200000006" stroke="#ff0000"/>
<line class="marker" x1="508.0" y1="320.51142400000003" x2="516.0" y2="320.51142400000003" stroke="#ff0000"/>
<line class="marker" x1="512.0" y1="316.51142400000003" x2="512.0" y2="324.51142400000003" stroke="#ff0000"/>
<line class="marker" x1="516.936170212766" y1="312.8112000000001" x2="524.936170212766" y2="312.8112000000001" stroke="#ff0000"/>
<line class="marker" x1="520.936170212766" y1="308.8112000000001" x2="520.936170212766" y2="316.8112000000001" stroke="#ff0000"/>
<line class="marker" x1="525.872340425532" y1="311.22080000000005" x2="533.872340425532" y2="311.22080000000005" stroke="#ff0000"/>
<line class="marker" x1="529.872340425532" y1="307.22080000000005" x2="529.872340425532" y2="315.22080000000005" stroke="#ff0000"/>
<line class="marker" x1="534.8085106382979" y1="307.94659200000007" x2="542.8085106382979" y2="307.94659200000007" stroke="#ff0000"/>
<line class="marker" x1="538.8085106382979" y1="303.94659200000007" x2="538.8085106382979" y2="311.94659200000007" stroke="#ff0000"/>
<line class="marker" x1="543.7446808510638" y1="302.321728" x2="551.7446808510638" y2="302.321728" stroke="#ff0000"/>
<line class="marker" x1="547.7446808510638" y1="298.321728" x2="547.7446808510638" y2="306.321728" stroke="#ff0000"/>
<line class="marker" x1="552.6808510638298" y1="299.64537600000006" x2="560.6808510638298" y2="299.64537600000006" stroke="#ff0000"/>
<line class="marker" x1="556.6808510638298" y1="295.64537600000006" x2="556.6808510638298" y2="303.64537600000006" stroke="#ff0000"/>
<line class="marker" x1="561.6170212765958" y1="295.7200000000001" x2="569.6170212765958" y2="295.7200000000001" stroke="#ff0000"/>
<line class="marker" x1="565.6170212765958" y1="291.7200000000001" x2="565.6170212765958" y2="299.7200000000001" stroke="#ff0000"/>
<line class="marker" x1="570.5531914893618" y1="294.76800000000003" x2="578.5531914893618" y2="294.76800000000003" stroke="#ff0000"/>
<line class="marker" x1="574.5531914893618" y1="290.76800000000003" x2="574.5531914893618" y2="298.76800000000003" stroke="#ff0000"/>
<line class="marker" x1="579.4893617021277" y1="284.280096" x2="587.4893617021277" y2="284.280096" stroke="#ff0000"/>
<line class="marker" x1="583.4893617021277" y1="280.280096" x2="583.4893617021277" y2="288.280096" stroke="#ff0000"/>
<line class="marker" x1="588.4255319148936" y1="278.53180800000007" x2="596.4255319148936" y2="278.53180800000007" stroke="#ff0000"/>
<line class="marker" x1="592.4255319148936" y1="274.53180800000007" x2="592.4255319148936" y2="282.53180800000007" stroke="#ff0000"/>
<line class="marker" x1="597.3617021276596" y1="271.36" x2="605.3617021276596" y2="271.36" stroke="#ff0000"/>
<line class="marker" x1="601.3617021276596" y1="267.36" x2="601.3617021276596" y2="275.36" stroke="#ff0000"/>
<line class="marker" x1="606.2978723404256" y1="273.1634240000001" x2="614.2978723404256" y2="273.1634240000001" stroke="#ff0000"/>
<line class="marker" x1="610.2978723404256" y1="269.1634240000001" x2="610.2978723404256" y2="277.1634240000001" stroke="#ff0000"/>
<line class="marker" x1="615.2340425531914" y1="265.2465920000001" x2="623.2340425531914" y2="265.2465920000001" stroke="#ff0000"/>
<line class="marker" x1="619.2340425531914" y1="261.2465920000001" x2="619.2340425531914" y2="269.2465920000001" stroke="#ff0000"/>
<line class="marker" x1="624.1702127659574" y1="249.694496" x2="632.1702127659574" y2="249.694496" stroke="#ff0000"/>
<line class="marker" x1="628.1702127659574" y1="245.694496" x2="628.1702127659574" y2="253.694496" stroke="#ff0000"/>
<line class="marker" x1="633.1063829787234" y1="254.4065600000001" x2="641.1063829787234" y2="254.4065600000001" stroke="#ff0000"/>
<line class="marker" x1="637.1063829787234" y1="250.4065600000001" x2="637.1063829787234" y2="258.4065600000001" stroke="#ff0000"/>
<line class="marker" x1="642.0425531914893" y1="247.07548800000004" x2="650.0425531914893" y2="247.07548800000004" stroke="#ff0000"/>
<line class="marker" x1="646.0425531914893" y1="243.07548800000004" x2="646.0425531914893" y2="251.07548800000004" stroke="#ff0000"/>
<line class="marker" x1="650.9787234042553" y1="239.86000000000007" x2="658.9787234042553" y2="239.86000000000007" stroke="#ff0000"/>
<line class="marker" x1="654.9787234042553" y1="235.86000000000007" x2="654.9787234042553" y2="243.86000000000007" stroke="#ff0000"/>
<line class="marker" x1="659.9148936170212" y1="237.57027200000002" x2="667.9148936170212" y2="237.57027200000002" stroke="#ff0000"/>
<line class="marker" x1="663.9148936170212" y1="233.57027200000002" x2="663.9148936170212" y2="241.57027200000002" stroke="#ff0000"/>
<line class="marker" x1="668.8510638297873" y1="235.03638400000006" x2="676.8510638297873" y2="235.03638400000006" stroke="#ff0000"/>
<line class="marker" x1="672.8510638297873" y1="231.03638400000006" x2="672.8510638297873" y2="239.03638400000006" stroke="#ff0000"/>
<line class="marker" x1="677.7872340425532" y1="225.47337600000006" x2="685.7872340425532" y2="225.47337600000006" stroke="#ff0000"/>
<line class="marker" x1="681.7872340425532" y1="221.47337600000006" x2="681.7872340425532" y2="229.47337600000006" stroke="#ff0000"/>
<line class="marker" x1="686.7234042553191" y1="225.349504" x2="694.7234042553191" y2="225.349504" stroke="#ff0000"/>
<line class="marker" x1="690.7234042553191" y1="221.349504" x2="690.7234042553191" y2="229.349504" stroke="#ff0000"/>
<line class="marker" x1="695.6595744680851" y1="218.5336320000001" x2="703.6595744680851" y2="218.5336320000001" stroke="#ff0000"/>
<line class="marker" x1="699.6595744680851" y1="214.5336320000001" x2="699.6595744680851" y2="222.5336320000001" stroke="#ff0000"/>
<line class="marker" x1="704.5957446808511" y1="210.2561600000001" x2="712.5957446808511" y2="210.2561600000001" stroke="#ff0000"/>
<line class="marker" x1="708.5957446808511" y1="206.2561600000001" x2="708.5957446808511" y2="214.2561600000001" stroke="#ff0000"/>
<line class="marker" x1="713.531914893617" y1="203.1428160000001" x2="721.531914893617" y2="203.1428160000001" stroke="#ff0000"/>
<line class="marker" x1="717.531914893617" y1="199.1428160000001" x2="717.531914893617" y2="207.1428160000001" stroke="#ff0000"/>
<line class="marker" x1="722.468085106383" y1="187.57772800000004" x2="730.468085106383" y2="187.57772800000004" stroke="#ff0000"/>
<line class="marker" x1="726.468085106383" y1="183.57772800000004" x2="726.468085106383" y2="191.57772800000004" stroke="#ff0000"/>
<line class="marker" x1="731.4042553191489" y1="200.040416" x2="739.4042553191489" y2="200.040416" stroke="#ff0000"/>
<line class="marker" x1="735.4042553191489" y1="196.040416" x2="735.4042553191489" y2="204.040416" stroke="#ff0000"/>
<line class="marker" x1="740.3404255319149" y1="192.91452800000002" x2="748.3404255319149" y2="192.91452800000002" stroke="#ff0000"/>
<line class="marker" x1="744.3404255319149" y1="188.91452800000002" x2="744.3404255319149" y2="196.91452800000002" stroke="#ff0000"/>
<line class="marker" x1="749.2765957446809" y1="180.9309760000001" x2="757.2765957446809" y2="180.9309760000001" stroke="#ff0000"/>
<line class="marker" x1="753.2765957446809" y1="176.9309760000001" x2="753.2765957446809" y2="184.9309760000001" stroke="#ff0000"/>
<line class="marker" x1="758.2127659574468" y1="193.91065600000007" x2="766.2127659574468" y2="193.91065600000007" stroke="#ff0000"/>
<line class="marker" x1="762.2127659574468" y1="189.91065600000007" x2="762.2127659574468" y2="197.91065600000007" stroke="#ff0000"/>
<line class="marker" x1="767.1489361702127" y1="183.8544" x2="775.1489361702127" y2="183.8544" stroke="#ff0000"/>
<line class="marker" x1="771.1489361702127" y1="179.8544" x2="771.1489361702127" y2="187.8544" stroke="#ff0000"/>
<line class="marker" x1="776.0851063829788" y1="176.46128000000004" x2="784.0851063829788" y2="176.46128000000004" stroke="#ff0000"/>
<line class="marker" x1="780.0851063829788" y1="172.46128000000004" x2="780.0851063829788" y2="180.46128000000004" stroke="#ff0000"/>
<line class="marker" x1="785.0212765957447" y1="185.77184000000005" x2="793.0212765957447" y2="185.77184000000005" stroke="#ff0000"/>
<line class="marker" x1="789.0212765957447" y1="181.77184000000005" x2="789.0212765957447" y2="189.77184000000005" stroke="#ff0000"/>
<line class="marker" x1="793.9574468085107" y1="176.50944000000004" x2="801.9574468085107" y2="176.50944000000004" stroke="#ff0000"/>
<line class="marker" x1="797.9574468085107" y1="172.50944000000004" x2="797.9574468085107" y2="180.50944000000004" stroke="#ff0000"/>
<line class="marker" x1="802.8936170212766" y1="183.10176000000013" x2="810.8936170212766" y2="183.10176000000013" stroke="#ff0000"/>
<line class="marker" x1="806.8936170212766" y1="179.10176000000013" x2="806.8936170212766" y2="187.10176000000013" stroke="#ff0000"/>
<line class="marker" x1="811.8297872340426" y1="165.8336000000001" x2="819.8297872340426" y2="165.8336000000001" stroke="#ff0000"/>
<line class="marker" x1="815.8297872340426" y1="161.8336000000001" x2="815.8297872340426" y2="169.8336000000001" stroke="#ff0000"/>
<line class="marker" x1="820.7659574468086" y1="171.31600000000003" x2="828.7659574468086" y2="171.31600000000003" stroke="#ff0000"/>
<line class="marker" x1="824.7659574468086" y1="167.31600000000003" x2="824.7659574468086" y2="175.31600000000003" stroke="#ff0000"/>
<line class="marker" x1="829.7021276595744" y1="145.56720000000007" x2="837.7021276595744" y2="145.56720000000007" stroke="#ff0000"/>
<line class="marker" x1="833.7021276595744" y1="141.56720000000007" x2="833.7021276595744" y2="149.56720000000007" stroke="#ff0000"/>
<line class="marker" x1="838.6382978723404" y1="157.68" x2="846.6382978723404" y2="157.68" stroke="#ff0000"/>
<line class="marker" x1="842.6382978723404" y1="153.68" x2="842.6382978723404" y2="161.68" stroke="#ff0000"/>
<line class="marker" x1="847.5744680851064" y1="153.98176000000012" x2="855.5744680851064" y2="153.98176000000012" stroke="#ff0000"/>
<line class="marker" x1="851.5744680851064" y1="149.98176000000012" x2="851.5744680851064" y2="157.98176000000012" stroke="#ff0000"/>
<line class="marker" x1="856.5106382978723" y1="163.75600000000003" x2="864.5106382978723" y2="163.75600000000003" stroke="#ff0000"/>
<line class="marker" x1="860.5106382978723" y1="159.75600000000003" x2="860.5106382978723" y2="167.75600000000003" stroke="#ff0000"/>
<line class="marker" x1="865.4468085106382" y1="132.3904000000001" x2="873.4468085106382" y2="132.3904000000001" stroke="#ff0000"/>
<line class="marker" x1="869.4468085106382" y1="128.3904000000001" x2="869.4468085106382" y2="136.3904000000001" stroke="#ff0000"/>
<line class="marker" x1="874.3829787234042" y1="136.5568" x2="882.3829787234042" y2="136.5568" stroke="#ff0000"/>
<line class="marker" x1="878.3829787234042" y1="132.5568" x2="878.3829787234042" y2="140.5568" stroke="#ff0000"/>
<line class="marker" x1="883.3191489361702" y1="143.18272000000002" x2="891.3191489361702" y2="143.18272000000002" stroke="#ff0000"/>
<line class="marker" x1="887.3191489361702" y1="139.18272000000002" x2="887.3191489361702" y2="147.18272000000002" stroke="#ff0000"/>
<line class="marker" x1="892.2553191489362" y1="141.04576000000003" x2="900.2553191489362" y2="141.04576000000003" stroke="#ff0000"/>
<line class="marker" x1="896.2553191489362" y1="137.04576000000003" x2="896.2553191489362" y2="145.04576000000003" stroke="#ff0000"/>
<line class="marker" x1="901.1914893617021" y1="147.87440000000004" x2="909.1914893617021" y2="147.87440000000004" stroke="#ff0000"/>
<line class="marker" x1="905.1914893617021" y1="143.87440000000004" x2="905.1914893617021" y2="151.87440000000004" stroke="#ff0000"/>
<line class="marker" x1="910.1276595744681" y1="116.61968000000007" x2="918.1276595744681" y2="116.61968000000007" stroke="#ff0000"/>
<line class="marker" x1="914.1276595744681" y1="112.61968000000007" x2="914.1276595744681" y2="120.61968000000007" stroke="#ff0000"/>
<line class="marker" x1="919.0638297872341" y1="132.43856000000005" x2="927.0638297872341" y2="132.43856000000005" stroke="#ff0000"/>
<line class="marker" x1="923.0638297872341" y1="128.43856000000005" x2="923.0638297872341" y2="136.43856000000005" stroke="#ff0000"/>
<line class="marker" x1="928.0" y1="115.53215999999998" x2="936.0" y2="115.53215999999998" stroke="#ff0000"/>
<line class="marker" x1="932.0" y1="111.53215999999998" x2="932.0" y2="119.53215999999998" stroke="#ff0000"/>
<text class="legend" x="812" y="94" text-anchor="start">Packet Loss</text>
<line x1="868" y1="90" x2="918" y2="90" stroke="#ff0000" stroke-width="2"/>
<line class="marker" x1="889.0" y1="90" x2="897.0" y2="90" stroke="#ff0000"/>
<line class="marker" x1="893.0" y1="86" x2="893.0" y2="94" stroke="#ff0000"/>
</svg>