<svg xmlns="http://www.w3.org/2000/svg" width="960" height="540" viewBox="0 0 960 540">
<style>
text { font-family: Helvetica, Arial, sans-serif; fill: #13233a; }
.title { font-size: 24px; font-weight: 700; }
.axis-label { font-size: 16px; font-weight: 600; }
.tick { font-size: 12px; }
.grid { stroke: #d7e0ea; stroke-width: 1; }
.axis { stroke: #13233a; stroke-width: 2; }
.line { fill: none; stroke: #0b7285; stroke-width: 3; }
.marker { fill: #0b7285; }
.error { stroke: #2f4858; stroke-width: 1.5; }
</style>
<rect width="960" height="540" fill="#ffffff"/>
<text class="title" x="88" y="32">Packet Loss vs Node Count</text>
<line class="grid" x1="88" y1="464.00000000000006" x2="936" y2="464.00000000000006"/>
<text class="tick" x="76" y="468.00000000000006" text-anchor="end">0.35</text>
<line class="grid" x1="88" y1="396.0" x2="936" y2="396.0"/>
<text class="tick" x="76" y="400.0" text-anchor="end">0.4</text>
<line class="grid" x1="88" y1="328.0" x2="936" y2="328.0"/>
<text class="tick" x="76" y="332.0" text-anchor="end">0.45</text>
<line class="grid" x1="88" y1="260.00000000000006" x2="936" y2="260.00000000000006"/>
<text class="tick" x="76" y="264.00000000000006" text-anchor="end">0.5</text>
<line class="grid" x1="88" y1="191.99999999999994" x2="936" y2="191.99999999999994"/>
<text class="tick" x="76" y="195.99999999999994" text-anchor="end">0.55</text>
<line class="grid" x1="88" y1="124.00000000000006" x2="936" y2="124.00000000000006"/>
<text class="tick" x="76" y="128.00000000000006" text-anchor="end">0.6</text>
<line class="grid" x1="88" y1="56.0" x2="936" y2="56.0"/>
<text class="tick" x="76" y="60.0" text-anchor="end">0.65</text>
<line class="grid" x1="88.0" y1="56" x2="88.0" y2="464"/>
<text class="tick" x="88.0" y="484" text-anchor="middle">10</text>
<line class="grid" x1="173.75280898876406" y1="56" x2="173.75280898876406" y2="464"/>
<text class="tick" x="173.75280898876406" y="484" text-anchor="middle">100</text>
<line class="grid" x1="269.03370786516854" y1="56" x2="269.03370786516854" y2="464"/>
<text class="tick" x="269.03370786516854" y="484" text-anchor="middle">200</text>
<line class="grid" x1="364.3146067415731" y1="56" x2="364.3146067415731" y2="464"/>
<text class="tick" x="364.3146067415731" y="484" text-anchor="middle">300</text>
<line class="grid" x1="459.59550561797755" y1="56" x2="459.59550561797755" y2="464"/>
<text class="tick" x="459.59550561797755" y="484" text-anchor="middle">400</text>
<line class="grid" x1="554.8764044943821" y1="56" x2="554.8764044943821" y2="464"/>
<text class="tick" x="554.8764044943821" y="484" text-anchor="middle">500</text>
<line class="grid" x1="650.1573033707865" y1="56" x2="650.1573033707865" y2="464"/>
<text class="tick" x="650.1573033707865" y="484" text-anchor="middle">600</text>
<line class="grid" x1="745.438202247191" y1="56" x2="745.438202247191" y2="464"/>
<text class="tick" x="745.438202247191" y="484" text-anchor="middle">700</text>
<line class="grid" x1="840.7191011235955" y1="56" x2="840.7191011235955" y2="464"/>
<text class="tick" x="840.7191011235955" y="484" text-anchor="middle">800</text>
<line class="grid" x1="936.0" y1="56" x2="936.0" y2="464"/>
<text class="tick" x="936.0" y="484" text-anchor="middle">900</text>
<line class="axis" x1="88" y1="464" x2="936" y2="464"/>
<line class="axis" x1="88" y1="56" x2="88" y2="464"/>
<text class="axis-label" x="512.0" y="524" text-anchor="middle">Number of Vehicles</text>
<text class="axis-label" x="22" y="260.0" text-anchor="middle" transform="rotate(-90 22 260.0)">Packet Loss Ratio</text>
<polyline class="line" points="88.0,380.36000000000007 97.52808988764045,383.4200000000001 107.0561797752809,379.90657600000003 116.58426966292134,383.93000000000006 126.11235955056179,383.48800000000006 135.64044943820224,370.726576 145.1685393258427,380.4571040000001 154.69662921348316,375.51486400000005 164.22471910112358,378.69808000000006 173.75280898876406,376.41600000000005 183.28089887640448,370.4069760000001 192.80898876404495,374.523696 202.33707865168537,373.978608 211.86516853932585,373.65737600000006 221.3932584269663,378.22942400000005 230.92134831460675,368.46027200000003 240.4494382022472,375.279856 249.97752808988764,374.051232 259.5056179775281,368.90744000000007 269.03370786516854,360.98 278.56179775280896,364.52552000000003 288.08988764044943,362.3707360000001 297.6179775280899,360.344064 307.1460674157304,357.013424 316.67415730337075,362.76160000000004 326.2022471910112,353.4475040000001 335.7303370786517,352.80721600000004 345.2584269662922,354.592896 354.7865168539326,352.66768 364.3146067415731,352.91057600000005 373.8426966292135,344.21011200000004 383.37078651685397,344.10784000000007 392.8988764044944,339.86926400000004 402.42696629213486,334.120272 411.9550561797753,338.627584 421.48314606741576,328.71780800000005 431.0112359550562,322.707152 440.53932584269666,322.9002720000001 450.0674157303371,326.72731200000004 459.59550561797755,323.03600000000006 469.12359550561797,322.8252 478.65168539325845,311.1297440000001 488.17977528089887,305.845056 497.70786516853934,306.13147200000003 507.23595505617976,301.238464 516.7640449438202,305.66336 526.2921348314608,297.89177600000005 535.8202247191011,289.763872 545.3483146067415,280.4136000000001 554.8764044943821,278.4824 564.4044943820224,274.50657600000005 573.9325842696628,267.67638400000004 583.4606741573034,264.4265280000001 592.9887640449438,259.6600000000001 602.5168539325844,258.504 612.0449438202247,245.768688 621.5730337078652,238.78862400000008 631.1011235955057,230.07999999999998 640.6292134831461,232.26987200000002 650.1573033707865,222.65657600000003 659.685393258427,203.77188799999993 669.2134831460675,209.49368000000007 678.7415730337079,200.59166400000004 688.2696629213483,191.8300000000001 697.7977528089888,189.04961600000001 707.3258426966293,185.97275199999996 716.8539325842697,174.36052800000004 726.3820224719101,174.21011199999998 735.9101123595506,165.93369600000005 745.438202247191,155.88248000000004 754.9662921348315,147.24484800000005 764.4943820224719,128.344384 774.0224719101124,143.477648 783.5505617977528,134.82478399999997 793.0786516853933,120.2733280000001 802.6067415730337,136.0343680000001 812.1348314606741,123.82319999999999 821.6629213483146,114.84584000000001 831.1910112359551,126.15152000000006 840.7191011235955,114.90431999999998 850.2471910112359,122.90928000000008 859.7752808988764,101.94080000000008 869.3033707865169,108.59800000000001 878.8314606741573,77.3316000000001 888.3595505617977,92.03999999999996 897.8876404494382,87.54928000000007 907.4157303370787,99.41799999999995 916.943820224719,61.331200000000024 926.4719101123595,66.3904 936.0,74.43616000000003"/>
<line class="error" x1="88.0" y1="402.73293007185254" x2="88.0" y2="357.9870699281476"/>
<line class="error" x1="82.0" y1="402.73293007185254" x2="94.0" y2="402.73293007185254"/>
<line class="error" x1="82.0" y1="357.9870699281476" x2="94.0" y2="357.9870699281476"/>
<circle class="marker" cx="88.0" cy="380.36000000000007" r="4.5"/>
<line class="error" x1="97.52808988764045" y1="399.25830799043894" x2="97.52808988764045" y2="367.58169200956115"/>
<line class="error" x1="91.52808988764045" y1="399.25830799043894" x2="103.52808988764045" y2="399.25830799043894"/>
<line class="error" x1="91.52808988764045" y1="367.58169200956115" x2="103.52808988764045" y2="367.58169200956115"/>
<circle class="marker" cx="97.52808988764045" cy="383.4200000000001" r="4.5"/>
<line class="error" x1="107.0561797752809" y1="387.0475437751745" x2="107.0561797752809" y2="372.76560822482554"/>
<line class="error" x1="101.0561797752809" y1="387.0475437751745" x2="113.0561797752809" y2="387.0475437751745"/>
<line class="error" x1="101.0561797752809" y1="372.76560822482554" x2="113.0561797752809" y2="372.76560822482554"/>
<circle class="marker" cx="107.0561797752809" cy="379.90657600000003" r="4.5"/>
<line class="error" x1="116.58426966292134" y1="404.3423920695249" x2="116.58426966292134" y2="363.5176079304752"/>
<line class="error" x1="110.58426966292134" y1="404.3423920695249" x2="122.58426966292134" y2="404.3423920695249"/>
<line class="error" x1="110.58426966292134" y1="363.5176079304752" x2="122.58426966292134" y2="363.5176079304752"/>
<circle class="marker" cx="116.58426966292134" cy="383.93000000000006" r="4.5"/>
<line class="error" x1="126.11235955056179" y1="396.26042028747884" x2="126.11235955056179" y2="370.7155797125212"/>
<line class="error" x1="120.11235955056179" y1="396.26042028747884" x2="132.1123595505618" y2="396.26042028747884"/>
<line class="error" x1="120.11235955056179" y1="370.7155797125212" x2="132.1123595505618" y2="370.7155797125212"/>
<circle class="marker" cx="126.11235955056179" cy="383.48800000000006" r="4.5"/>
<line class="error" x1="135.64044943820224" y1="388.91111117192236" x2="135.64044943820224" y2="352.5420408280777"/>
<line class="error" x1="129.64044943820224" y1="388.91111117192236" x2="141.64044943820224" y2="388.91111117192236"/>
<line class="error" x1="129.64044943820224" y1="352.5420408280777" x2="141.64044943820224" y2="352.5420408280777"/>
<circle class="marker" cx="135.64044943820224" cy="370.726576" r="4.5"/>
<line class="error" x1="145.1685393258427" y1="384.1879588860121" x2="145.1685393258427" y2="376.72624911398805"/>
<line class="error" x1="139.1685393258427" y1="384.1879588860121" x2="151.1685393258427" y2="384.1879588860121"/>
<line class="error" x1="139.1685393258427" y1="376.72624911398805" x2="151.1685393258427" y2="376.72624911398805"/>
<circle class="marker" cx="145.1685393258427" cy="380.4571040000001" r="4.5"/>
<line class="error" x1="154.69662921348316" y1="391.4012835051144" x2="154.69662921348316" y2="359.6284444948856"/>
<line class="error" x1="148.69662921348316" y1="391.4012835051144" x2="160.69662921348316" y2="391.4012835051144"/>
<line class="error" x1="148.69662921348316" y1="359.6284444948856" x2="160.69662921348316" y2="359.6284444948856"/>
<circle class="marker" cx="154.69662921348316" cy="375.51486400000005" r="4.5"/>
<line class="error" x1="164.22471910112358" y1="394.6664360965305" x2="164.22471910112358" y2="362.7297239034696"/>
<line class="error" x1="158.22471910112358" y1="394.6664360965305" x2="170.22471910112358" y2="394.6664360965305"/>
<line class="error" x1="158.22471910112358" y1="362.7297239034696" x2="170.22471910112358" y2="362.7297239034696"/>
<circle class="marker" cx="164.22471910112358" cy="378.69808000000006" r="4.5"/>
<line class="error" x1="173.75280898876406" y1="378.6010125857762" x2="173.75280898876406" y2="374.23098741422393"/>
<line class="error" x1="167.75280898876406" y1="378.6010125857762" x2="179.75280898876406" y2="378.6010125857762"/>
<line class="error" x1="167.75280898876406" y1="374.23098741422393" x2="179.75280898876406" y2="374.23098741422393"/>
<circle class="marker" cx="173.75280898876406" cy="376.41600000000005" r="4.5"/>
<line class="error" x1="183.28089887640448" y1="383.38015766648726" x2="183.28089887640448" y2="357.4337943335129"/>
<line class="error" x1="177.28089887640448" y1="383.38015766648726" x2="189.28089887640448" y2="383.38015766648726"/>
<line class="error" x1="177.28089887640448" y1="357.4337943335129" x2="189.28089887640448" y2="357.4337943335129"/>
<circle class="marker" cx="183.28089887640448" cy="370.4069760000001" r="4.5"/>
<line class="error" x1="192.80898876404495" y1="380.44471028970406" x2="192.80898876404495" y2="368.6026817102959"/>
<line class="error" x1="186.80898876404495" y1="380.44471028970406" x2="198.80898876404495" y2="380.44471028970406"/>
<line class="error" x1="186.80898876404495" y1="368.6026817102959" x2="198.80898876404495" y2="368.6026817102959"/>
<circle class="marker" cx="192.80898876404495" cy="374.523696" r="4.5"/>
<line class="error" x1="202.33707865168537" y1="378.62214426990465" x2="202.33707865168537" y2="369.33507173009536"/>
<line class="error" x1="196.33707865168537" y1="378.62214426990465" x2="208.33707865168537" y2="378.62214426990465"/>
<line class="error" x1="196.33707865168537" y1="369.33507173009536" x2="208.33707865168537" y2="369.33507173009536"/>
<circle class="marker" cx="202.33707865168537" cy="373.978608" r="4.5"/>
<line class="error" x1="211.86516853932585" y1="383.5933310299144" x2="211.86516853932585" y2="363.7214209700858"/>
<line class="error" x1="205.86516853932585" y1="383.5933310299144" x2="217.86516853932585" y2="383.5933310299144"/>
<line class="error" x1="205.86516853932585" y1="363.7214209700858" x2="217.86516853932585" y2="363.7214209700858"/>
<circle class="marker" cx="211.86516853932585" cy="373.65737600000006" r="4.5"/>
<line class="error" x1="221.3932584269663" y1="384.4915369186625" x2="221.3932584269663" y2="371.9673110813375"/>
<line class="error" x1="215.3932584269663" y1="384.4915369186625" x2="227.3932584269663" y2="384.4915369186625"/>
<line class="error" x1="215.3932584269663" y1="371.9673110813375" x2="227.3932584269663" y2="371.9673110813375"/>
<circle class="marker" cx="221.3932584269663" cy="378.22942400000005" r="4.5"/>
<line class="error" x1="230.92134831460675" y1="377.91773275004914" x2="230.92134831460675" y2="359.0028112499509"/>
<line class="error" x1="224.92134831460675" y1="377.91773275004914" x2="236.92134831460675" y2="377.91773275004914"/>
<line class="error" x1="224.92134831460675" y1="359.0028112499509" x2="236.92134831460675" y2="359.0028112499509"/>
<circle class="marker" cx="230.92134831460675" cy="368.46027200000003" r="4.5"/>
<line class="error" x1="240.4494382022472" y1="381.5500570262893" x2="240.4494382022472" y2="369.00965497371067"/>
<line class="error" x1="234.4494382022472" y1="381.5500570262893" x2="246.4494382022472" y2="381.5500570262893"/>
<line class="error" x1="234.4494382022472" y1="369.00965497371067" x2="246.4494382022472" y2="369.00965497371067"/>
<circle class="marker" cx="240.4494382022472" cy="375.279856" r="4.5"/>
<line class="error" x1="249.97752808988764" y1="382.8309946607739" x2="249.97752808988764" y2="365.2714693392261"/>
<line class="error" x1="243.97752808988764" y1="382.8309946607739" x2="255.97752808988764" y2="382.8309946607739"/>
<line class="error" x1="243.97752808988764" y1="365.2714693392261" x2="255.97752808988764" y2="365.2714693392261"/>
<circle class="marker" cx="249.97752808988764" cy="374.051232" r="4.5"/>
<line class="error" x1="259.5056179775281" y1="378.412084241296" x2="259.5056179775281" y2="359.40279575870414"/>
<line class="error" x1="253.50561797752812" y1="378.412084241296" x2="265.5056179775281" y2="378.412084241296"/>
<line class="error" x1="253.50561797752812" y1="359.40279575870414" x2="265.5056179775281" y2="359.40279575870414"/>
<circle class="marker" cx="259.5056179775281" cy="368.90744000000007" r="4.5"/>
<line class="error" x1="269.03370786516854" y1="374.299258613001" x2="269.03370786516854" y2="347.66074138699906"/>
<line class="error" x1="263.03370786516854" y1="374.299258613001" x2="275.03370786516854" y2="374.299258613001"/>
<line class="error" x1="263.03370786516854" y1="347.66074138699906" x2="275.03370786516854" y2="347.66074138699906"/>
<circle class="marker" cx="269.03370786516854" cy="360.98" r="4.5"/>
<line class="error" x1="278.56179775280896" y1="369.3768383531078" x2="278.56179775280896" y2="359.67420164689224"/>
<line class="error" x1="272.56179775280896" y1="369.3768383531078" x2="284.56179775280896" y2="369.3768383531078"/>
<line class="error" x1="272.56179775280896" y1="359.67420164689224" x2="284.56179775280896" y2="359.67420164689224"/>
<circle class="marker" cx="278.56179775280896" cy="364.52552000000003" r="4.5"/>
<line class="error" x1="288.08988764044943" y1="367.6698747887166" x2="288.08988764044943" y2="357.0715972112835"/>
<line class="error" x1="282.08988764044943" y1="367.6698747887166" x2="294.08988764044943" y2="367.6698747887166"/>
<line class="error" x1="282.08988764044943" y1="357.0715972112835" x2="294.08988764044943" y2="357.0715972112835"/>
<circle class="marker" cx="288.08988764044943" cy="362.3707360000001" r="4.5"/>
<line class="error" x1="297.6179775280899" y1="365.8835243565041" x2="297.6179775280899" y2="354.80460364349597"/>
<line class="error" x1="291.6179775280899" y1="365.8835243565041" x2="303.6179775280899" y2="365.8835243565041"/>
<line class="error" x1="291.6179775280899" y1="354.80460364349597" x2="303.6179775280899" y2="354.80460364349597"/>
<circle class="marker" cx="297.6179775280899" cy="360.344064" r="4.5"/>
<line class="error" x1="307.1460674157304" y1="364.0915901933357" x2="307.1460674157304" y2="349.93525780666437"/>
<line class="error" x1="301.1460674157304" y1="364.0915901933357" x2="313.1460674157304" y2="364.0915901933357"/>
<line class="error" x1="301.1460674157304" y1="349.93525780666437" x2="313.1460674157304" y2="349.93525780666437"/>
<circle class="marker" cx="307.1460674157304" cy="357.013424" r="4.5"/>
<line class="error" x1="316.67415730337075" y1="371.8281193321363" x2="316.67415730337075" y2="353.6950806678638"/>
<line class="error" x1="310.67415730337075" y1="371.8281193321363" x2="322.67415730337075" y2="371.8281193321363"/>
<line class="error" x1="310.67415730337075" y1="353.6950806678638" x2="322.67415730337075" y2="353.6950806678638"/>
<circle class="marker" cx="316.67415730337075" cy="362.76160000000004" r="4.5"/>
<line class="error" x1="326.2022471910112" y1="360.00907369034707" x2="326.2022471910112" y2="346.8859343096531"/>
<line class="error" x1="320.2022471910112" y1="360.00907369034707" x2="332.2022471910112" y2="360.00907369034707"/>
<line class="error" x1="320.2022471910112" y1="346.8859343096531" x2="332.2022471910112" y2="346.8859343096531"/>
<circle class="marker" cx="326.2022471910112" cy="353.4475040000001" r="4.5"/>
<line class="error" x1="335.7303370786517" y1="359.71230603223563" x2="335.7303370786517" y2="345.9021259677644"/>
<line class="error" x1="329.7303370786517" y1="359.71230603223563" x2="341.7303370786517" y2="359.71230603223563"/>
<line class="error" x1="329.7303370786517" y1="345.9021259677644" x2="341.7303370786517" y2="345.9021259677644"/>
<circle class="marker" cx="335.7303370786517" cy="352.80721600000004" r="4.5"/>
<line class="error" x1="345.2584269662922" y1="360.94985697691976" x2="345.2584269662922" y2="348.2359350230803"/>
<line class="error" x1="339.2584269662922" y1="360.94985697691976" x2="351.2584269662922" y2="360.94985697691976"/>
<line class="error" x1="339.2584269662922" y1="348.2359350230803" x2="351.2584269662922" y2="348.2359350230803"/>
<circle class="marker" cx="345.2584269662922" cy="354.592896" r="4.5"/>
<line class="error" x1="354.7865168539326" y1="363.5308247464535" x2="354.7865168539326" y2="341.8045352535465"/>
<line class="error" x1="348.7865168539326" y1="363.5308247464535" x2="360.7865168539326" y2="363.5308247464535"/>
<line class="error" x1="348.7865168539326" y1="341.8045352535465" x2="360.7865168539326" y2="341.8045352535465"/>
<circle class="marker" cx="354.7865168539326" cy="352.66768" r="4.5"/>
<line class="error" x1="364.3146067415731" y1="359.3313125584706" x2="364.3146067415731" y2="346.4898394415295"/>
<line class="error" x1="358.3146067415731" y1="359.3313125584706" x2="370.3146067415731" y2="359.3313125584706"/>
<line class="error" x1="358.3146067415731" y1="346.4898394415295" x2="370.3146067415731" y2="346.4898394415295"/>
<circle class="marker" cx="364.3146067415731" cy="352.91057600000005" r="4.5"/>
<line class="error" x1="373.8426966292135" y1="350.0657581400191" x2="373.8426966292135" y2="338.354465859981"/>
<line class="error" x1="367.8426966292135" y1="350.0657581400191" x2="379.8426966292135" y2="350.0657581400191"/>
<line class="error" x1="367.8426966292135" y1="338.354465859981" x2="379.8426966292135" y2="338.354465859981"/>
<circle class="marker" cx="373.8426966292135" cy="344.21011200000004" r="4.5"/>
<line class="error" x1="383.37078651685397" y1="351.0115179556408" x2="383.37078651685397" y2="337.2041620443593"/>
<line class="error" x1="377.37078651685397" y1="351.0115179556408" x2="389.37078651685397" y2="351.0115179556408"/>
<line class="error" x1="377.37078651685397" y1="337.2041620443593" x2="389.37078651685397" y2="337.2041620443593"/>
<circle class="marker" cx="383.37078651685397" cy="344.10784000000007" r="4.5"/>
<line class="error" x1="392.8988764044944" y1="350.66218182552245" x2="392.8988764044944" y2="329.0763461744776"/>
<line class="error" x1="386.8988764044944" y1="350.66218182552245" x2="398.8988764044944" y2="350.66218182552245"/>
<line class="error" x1="386.8988764044944" y1="329.0763461744776" x2="398.8988764044944" y2="329.0763461744776"/>
<circle class="marker" cx="392.8988764044944" cy="339.86926400000004" r="4.5"/>
<line class="error" x1="402.42696629213486" y1="345.37238408768917" x2="402.42696629213486" y2="322.86815991231094"/>
<line class="error" x1="396.42696629213486" y1="345.37238408768917" x2="408.42696629213486" y2="345.37238408768917"/>
<line class="error" x1="396.42696629213486" y1="322.86815991231094" x2="408.42696629213486" y2="322.86815991231094"/>
<circle class="marker" cx="402.42696629213486" cy="334.120272" r="4.5"/>
<line class="error" x1="411.9550561797753" y1="352.81306256900433" x2="411.9550561797753" y2="324.4421054309957"/>
<line class="error" x1="405.9550561797753" y1="352.81306256900433" x2="417.9550561797753" y2="352.81306256900433"/>
<line class="error" x1="405.9550561797753" y1="324.4421054309957" x2="417.9550561797753" y2="324.4421054309957"/>
<circle class="marker" cx="411.9550561797753" cy="338.627584" r="4.5"/>
<line class="error" x1="421.48314606741576" y1="338.1797369685941" x2="421.48314606741576" y2="319.255879031406"/>
<line class="error" x1="415.48314606741576" y1="338.1797369685941" x2="427.48314606741576" y2="338.1797369685941"/>
<line class="error" x1="415.48314606741576" y1="319.255879031406" x2="427.48314606741576" y2="319.255879031406"/>
<circle class="marker" cx="421.48314606741576" cy="328.71780800000005" r="4.5"/>
<line class="error" x1="431.0112359550562" y1="332.8046254052594" x2="431.0112359550562" y2="312.6096785947406"/>
<line class="error" x1="425.0112359550562" y1="332.8046254052594" x2="437.0112359550562" y2="332.8046254052594"/>
<line class="error" x1="425.0112359550562" y1="312.6096785947406" x2="437.0112359550562" y2="312.6096785947406"/>
<circle class="marker" cx="431.0112359550562" cy="322.707152" r="4.5"/>
<line class="error" x1="440.53932584269666" y1="331.24006415081055" x2="440.53932584269666" y2="314.5604798491896"/>
<line class="error" x1="434.53932584269666" y1="331.24006415081055" x2="446.53932584269666" y2="331.24006415081055"/>
<line class="error" x1="434.53932584269666" y1="314.5604798491896" x2="446.53932584269666" y2="314.5604798491896"/>
<circle class="marker" cx="440.53932584269666" cy="322.9002720000001" r="4.5"/>
<line class="error" x1="450.0674157303371" y1="335.36378260072115" x2="450.0674157303371" y2="318.09084139927893"/>
<line class="error" x1="444.0674157303371" y1="335.36378260072115" x2="456.0674157303371" y2="335.36378260072115"/>
<line class="error" x1="444.0674157303371" y1="318.09084139927893" x2="456.0674157303371" y2="318.09084139927893"/>
<circle class="marker" cx="450.0674157303371" cy="326.72731200000004" r="4.5"/>
<line class="error" x1="459.59550561797755" y1="326.1623365141968" x2="459.59550561797755" y2="319.9096634858033"/>
<line class="error" x1="453.59550561797755" y1="326.1623365141968" x2="465.59550561797755" y2="326.1623365141968"/>
<line class="error" x1="453.59550561797755" y1="319.9096634858033" x2="465.59550561797755" y2="319.9096634858033"/>
<circle class="marker" cx="459.59550561797755" cy="323.03600000000006" r="4.5"/>
<line class="error" x1="469.12359550561797" y1="335.2153449956972" x2="469.12359550561797" y2="310.43505500430285"/>
<line class="error" x1="463.12359550561797" y1="335.2153449956972" x2="475.12359550561797" y2="335.2153449956972"/>
<line class="error" x1="463.12359550561797" y1="310.43505500430285" x2="475.12359550561797" y2="310.43505500430285"/>
<circle class="marker" cx="469.12359550561797" cy="322.8252" r="4.5"/>
<line class="error" x1="478.65168539325845" y1="316.76018149842594" x2="478.65168539325845" y2="305.49930650157415"/>
<line class="error" x1="472.65168539325845" y1="316.76018149842594" x2="484.65168539325845" y2="316.76018149842594"/>
<line class="error" x1="472.65168539325845" y1="305.49930650157415" x2="484.65168539325845" y2="305.49930650157415"/>
<circle class="marker" cx="478.65168539325845" cy="311.1297440000001" r="4.5"/>
<line class="error" x1="488.17977528089887" y1="312.74849949910106" x2="488.17977528089887" y2="298.94161250089905"/>
<line class="error" x1="482.17977528089887" y1="312.74849949910106" x2="494.17977528089887" y2="312.74849949910106"/>
<line class="error" x1="482.17977528089887" y1="298.94161250089905" x2="494.17977528089887" y2="298.94161250089905"/>
<circle class="marker" cx="488.17977528089887" cy="305.845056" r="4.5"/>
<line class="error" x1="497.70786516853934" y1="315.93644561605424" x2="497.70786516853934" y2="296.3264983839458"/>
<line class="error" x1="491.70786516853934" y1="315.93644561605424" x2="503.70786516853934" y2="315.93644561605424"/>
<line class="error" x1="491.70786516853934" y1="296.3264983839458" x2="503.70786516853934" y2="296.3264983839458"/>
<circle class="marker" cx="497.70786516853934" cy="306.13147200000003" r="4.5"/>
<line class="error" x1="507.23595505617976" y1="315.84626491643087" x2="507.23595505617976" y2="286.6306630835691"/>
<line class="error" x1="501.23595505617976" y1="315.84626491643087" x2="513.2359550561798" y2="315.84626491643087"/>
<line class="error" x1="501.23595505617976" y1="286.6306630835691" x2="513.2359550561798" y2="286.6306630835691"/>
<circle class="marker" cx="507.23595505617976" cy="301.238464" r="4.5"/>
<line class="error" x1="516.7640449438202" y1="317.31219260375906" x2="516.7640449438202" y2="294.01452739624096"/>
<line class="error" x1="510.7640449438202" y1="317.31219260375906" x2="522.7640449438202" y2="317.31219260375906"/>
<line class="error" x1="510.7640449438202" y1="294.01452739624096" x2="522.7640449438202" y2="294.01452739624096"/>
<circle class="marker" cx="516.7640449438202" cy="305.66336" r="4.5"/>
<line class="error" x1="526.2921348314608" y1="304.02112381741745" x2="526.2921348314608" y2="291.7624281825826"/>
<line class="error" x1="520.2921348314608" y1="304.02112381741745" x2="532.2921348314608" y2="304.02112381741745"/>
<line class="error" x1="520.2921348314608" y1="291.7624281825826" x2="532.2921348314608" y2="291.7624281825826"/>
<circle class="marker" cx="526.2921348314608" cy="297.89177600000005" r="4.5"/>
<line class="error" x1="535.8202247191011" y1="296.41703449291424" x2="535.8202247191011" y2="283.1107095070858"/>
<line class="error" x1="529.8202247191011" y1="296.41703449291424" x2="541.8202247191011" y2="296.41703449291424"/>
<line class="error" x1="529.8202247191011" y1="283.1107095070858" x2="541.8202247191011" y2="283.1107095070858"/>
<circle class="marker" cx="535.8202247191011" cy="289.763872" r="4.5"/>
<line class="error" x1="545.3483146067415" y1="286.33511793242246" x2="545.3483146067415" y2="274.49208206757766"/>
<line class="error" x1="539.3483146067415" y1="286.33511793242246" x2="551.3483146067415" y2="286.33511793242246"/>
<line class="error" x1="539.3483146067415" y1="274.49208206757766" x2="551.3483146067415" y2="274.49208206757766"/>
<circle class="marker" cx="545.3483146067415" cy="280.4136000000001" r="4.5"/>
<line class="error" x1="554.8764044943821" y1="284.19893153581785" x2="554.8764044943821" y2="272.7658684641822"/>
<line class="error" x1="548.8764044943821" y1="284.19893153581785" x2="560.8764044943821" y2="284.19893153581785"/>
<line class="error" x1="548.8764044943821" y1="272.7658684641822" x2="560.8764044943821" y2="272.7658684641822"/>
<circle class="marker" cx="554.8764044943821" cy="278.4824" r="4.5"/>
<line class="error" x1="564.4044943820224" y1="283.18139101495456" x2="564.4044943820224" y2="265.8317609850456"/>
<line class="error" x1="558.4044943820224" y1="283.18139101495456" x2="570.4044943820224" y2="283.18139101495456"/>
<line class="error" x1="558.4044943820224" y1="265.8317609850456" x2="570.4044943820224" y2="265.8317609850456"/>
<circle class="marker" cx="564.4044943820224" cy="274.50657600000005" r="4.5"/>
<line class="error" x1="573.9325842696628" y1="277.0280298310011" x2="573.9325842696628" y2="258.3247381689989"/>
<line class="error" x1="567.9325842696628" y1="277.0280298310011" x2="579.9325842696628" y2="277.0280298310011"/>
<line class="error" x1="567.9325842696628" y1="258.3247381689989" x2="579.9325842696628" y2="258.3247381689989"/>
<circle class="marker" cx="573.9325842696628" cy="267.67638400000004" r="4.5"/>
<line class="error" x1="583.4606741573034" y1="274.60838580385496" x2="583.4606741573034" y2="254.24467019614514"/>
<line class="error" x1="577.4606741573034" y1="274.60838580385496" x2="589.4606741573034" y2="274.60838580385496"/>
<line class="error" x1="577.4606741573034" y1="254.24467019614514" x2="589.4606741573034" y2="254.24467019614514"/>
<circle class="marker" cx="583.4606741573034" cy="264.4265280000001" r="4.5"/>
<line class="error" x1="592.9887640449438" y1="263.0571981975741" x2="592.9887640449438" y2="256.2628018024261"/>
<line class="error" x1="586.9887640449438" y1="263.0571981975741" x2="598.9887640449438" y2="263.0571981975741"/>
<line class="error" x1="586.9887640449438" y1="256.2628018024261" x2="598.9887640449438" y2="256.2628018024261"/>
<circle class="marker" cx="592.9887640449438" cy="259.6600000000001" r="4.5"/>
<line class="error" x1="602.5168539325844" y1="270.3606449288827" x2="602.5168539325844" y2="246.64735507111732"/>
<line class="error" x1="596.5168539325844" y1="270.3606449288827" x2="608.5168539325844" y2="270.3606449288827"/>
<line class="error" x1="596.5168539325844" y1="246.64735507111732" x2="608.5168539325844" y2="246.64735507111732"/>
<circle class="marker" cx="602.5168539325844" cy="258.504" r="4.5"/>
<line class="error" x1="612.0449438202247" y1="259.35144966258986" x2="612.0449438202247" y2="232.18592633741008"/>
<line class="error" x1="606.0449438202247" y1="259.35144966258986" x2="618.0449438202247" y2="259.35144966258986"/>
<line class="error" x1="606.0449438202247" y1="232.18592633741008" x2="618.0449438202247" y2="232.18592633741008"/>
<circle class="marker" cx="612.0449438202247" cy="245.768688" r="4.5"/>
<line class="error" x1="621.5730337078652" y1="248.7534665792926" x2="621.5730337078652" y2="228.82378142070758"/>
<line class="error" x1="615.5730337078652" y1="248.7534665792926" x2="627.5730337078652" y2="248.7534665792926"/>
<line class="error" x1="615.5730337078652" y1="228.82378142070758" x2="627.5730337078652" y2="228.82378142070758"/>
<circle class="marker" cx="621.5730337078652" cy="238.78862400000008" r="4.5"/>
<line class="error" x1="631.1011235955057" y1="237.73239244011967" x2="631.1011235955057" y2="222.4276075598803"/>
<line class="error" x1="625.1011235955057" y1="237.73239244011967" x2="637.1011235955057" y2="237.73239244011967"/>
<line class="error" x1="625.1011235955057" y1="222.4276075598803" x2="637.1011235955057" y2="222.4276075598803"/>
<circle class="marker" cx="631.1011235955057" cy="230.07999999999998" r="4.5"/>
<line class="error" x1="640.6292134831461" y1="239.75219194859346" x2="640.6292134831461" y2="224.78755205140658"/>
<line class="error" x1="634.6292134831461" y1="239.75219194859346" x2="646.6292134831461" y2="239.75219194859346"/>
<line class="error" x1="634.6292134831461" y1="224.78755205140658" x2="646.6292134831461" y2="224.78755205140658"/>
<circle class="marker" cx="640.6292134831461" cy="232.26987200000002" r="4.5"/>
<line class="error" x1="650.1573033707865" y1="232.82239722438126" x2="650.1573033707865" y2="212.49075477561883"/>
<line class="error" x1="644.1573033707865" y1="232.82239722438126" x2="656.1573033707865" y2="232.82239722438126"/>
<line class="error" x1="644.1573033707865" y1="212.49075477561883" x2="656.1573033707865" y2="212.49075477561883"/>
<circle class="marker" cx="650.1573033707865" cy="222.65657600000003" r="4.5"/>
<line class="error" x1="659.685393258427" y1="219.21256965620677" x2="659.685393258427" y2="188.33120634379316"/>
<line class="error" x1="653.685393258427" y1="219.21256965620677" x2="665.685393258427" y2="219.21256965620677"/>
<line class="error" x1="653.685393258427" y1="188.33120634379316" x2="665.685393258427" y2="188.33120634379316"/>
<circle class="marker" cx="659.685393258427" cy="203.77188799999993" r="4.5"/>
<line class="error" x1="669.2134831460675" y1="218.40012660959695" x2="669.2134831460675" y2="200.58723339040318"/>
<line class="error" x1="663.2134831460675" y1="218.40012660959695" x2="675.2134831460675" y2="218.40012660959695"/>
<line class="error" x1="663.2134831460675" y1="200.58723339040318" x2="675.2134831460675" y2="200.58723339040318"/>
<circle class="marker" cx="669.2134831460675" cy="209.49368000000007" r="4.5"/>
<line class="error" x1="678.7415730337079" y1="221.90284539654584" x2="678.7415730337079" y2="179.28048260345417"/>
<line class="error" x1="672.7415730337079" y1="221.90284539654584" x2="684.7415730337079" y2="221.90284539654584"/>
<line class="error" x1="672.7415730337079" y1="179.28048260345417" x2="684.7415730337079" y2="179.28048260345417"/>
<circle class="marker" cx="678.7415730337079" cy="200.59166400000004" r="4.5"/>
<line class="error" x1="688.2696629213483" y1="208.22520012618327" x2="688.2696629213483" y2="175.43479987381681"/>
<line class="error" x1="682.2696629213483" y1="208.22520012618327" x2="694.2696629213483" y2="208.22520012618327"/>
<line class="error" x1="682.2696629213483" y1="175.43479987381681" x2="694.2696629213483" y2="175.43479987381681"/>
<circle class="marker" cx="688.2696629213483" cy="191.8300000000001" r="4.5"/>
<line class="error" x1="697.7977528089888" y1="198.38545353935768" x2="697.7977528089888" y2="179.7137784606423"/>
<line class="error" x1="691.7977528089888" y1="198.38545353935768" x2="703.7977528089888" y2="198.38545353935768"/>
<line class="error" x1="691.7977528089888" y1="179.7137784606423" x2="703.7977528089888" y2="179.7137784606423"/>
<circle class="marker" cx="697.7977528089888" cy="189.04961600000001" r="4.5"/>
<line class="error" x1="707.3258426966293" y1="206.28777214164683" x2="707.3258426966293" y2="165.6577318583531"/>
<line class="error" x1="701.3258426966293" y1="206.28777214164683" x2="713.3258426966293" y2="206.28777214164683"/>
<line class="error" x1="701.3258426966293" y1="165.6577318583531" x2="713.3258426966293" y2="165.6577318583531"/>
<circle class="marker" cx="707.3258426966293" cy="185.97275199999996" r="4.5"/>
<line class="error" x1="716.8539325842697" y1="185.0312104790321" x2="716.8539325842697" y2="163.68984552096805"/>
<line class="error" x1="710.8539325842697" y1="185.0312104790321" x2="722.8539325842697" y2="185.0312104790321"/>
<line class="error" x1="710.8539325842697" y1="163.68984552096805" x2="722.8539325842697" y2="163.68984552096805"/>
<circle class="marker" cx="716.8539325842697" cy="174.36052800000004" r="4.5"/>
<line class="error" x1="726.3820224719101" y1="192.17754480249909" x2="726.3820224719101" y2="156.24267919750082"/>
<line class="error" x1="720.3820224719101" y1="192.17754480249909" x2="732.3820224719101" y2="192.17754480249909"/>
<line class="error" x1="720.3820224719101" y1="156.24267919750082" x2="732.3820224719101" y2="156.24267919750082"/>
<circle class="marker" cx="726.3820224719101" cy="174.21011199999998" r="4.5"/>
<line class="error" x1="735.9101123595506" y1="177.30775630740482" x2="735.9101123595506" y2="154.55963569259535"/>
<line class="error" x1="729.9101123595506" y1="177.30775630740482" x2="741.9101123595506" y2="177.30775630740482"/>
<line class="error" x1="729.9101123595506" y1="154.55963569259535" x2="741.9101123595506" y2="154.55963569259535"/>
<circle class="marker" cx="735.9101123595506" cy="165.93369600000005" r="4.5"/>
<line class="error" x1="745.438202247191" y1="175.62194407013124" x2="745.438202247191" y2="136.14301592986885"/>
<line class="error" x1="739.438202247191" y1="175.62194407013124" x2="751.438202247191" y2="175.62194407013124"/>
<line class="error" x1="739.438202247191" y1="136.14301592986885" x2="751.438202247191" y2="136.14301592986885"/>
<circle class="marker" cx="745.438202247191" cy="155.88248000000004" r="4.5"/>
<line class="error" x1="754.9662921348315" y1="156.51911192578524" x2="754.9662921348315" y2="137.97058407421486"/>
<line class="error" x1="748.9662921348315" y1="156.51911192578524" x2="760.9662921348315" y2="156.51911192578524"/>
<line class="error" x1="748.9662921348315" y1="137.97058407421486" x2="760.9662921348315" y2="137.97058407421486"/>
<circle class="marker" cx="754.9662921348315" cy="147.24484800000005" r="4.5"/>
<line class="error" x1="764.4943820224719" y1="145.16067730042982" x2="764.4943820224719" y2="111.52809069957016"/>
<line class="error" x1="758.4943820224719" y1="145.16067730042982" x2="770.4943820224719" y2="145.16067730042982"/>
<line class="error" x1="758.4943820224719" y1="111.52809069957016" x2="770.4943820224719" y2="111.52809069957016"/>
<circle class="marker" cx="764.4943820224719" cy="128.344384" r="4.5"/>
<line class="error" x1="774.0224719101124" y1="155.08687814868426" x2="774.0224719101124" y2="131.8684178513157"/>
<line class="error" x1="768.0224719101124" y1="155.08687814868426" x2="780.0224719101124" y2="155.08687814868426"/>
<line class="error" x1="768.0224719101124" y1="131.8684178513157" x2="780.0224719101124" y2="131.8684178513157"/>
<circle class="marker" cx="774.0224719101124" cy="143.477648" r="4.5"/>
<line class="error" x1="783.5505617977528" y1="146.5808350860271" x2="783.5505617977528" y2="123.0687329139729"/>
<line class="error" x1="777.5505617977528" y1="146.5808350860271" x2="789.5505617977528" y2="146.5808350860271"/>
<line class="error" x1="777.5505617977528" y1="123.0687329139729" x2="789.5505617977528" y2="123.0687329139729"/>
<circle class="marker" cx="783.5505617977528" cy="134.82478399999997" r="4.5"/>
<line class="error" x1="793.0786516853933" y1="129.59042454218093" x2="793.0786516853933" y2="110.95623145781929"/>
<line class="error" x1="787.0786516853933" y1="129.59042454218093" x2="799.0786516853933" y2="129.59042454218093"/>
<line class="error" x1="787.0786516853933" y1="110.95623145781929" x2="799.0786516853933" y2="110.95623145781929"/>
<circle class="marker" cx="793.0786516853933" cy="120.2733280000001" r="4.5"/>
<line class="error" x1="802.6067415730337" y1="152.04037386505968" x2="802.6067415730337" y2="120.02836213494044"/>
<line class="error" x1="796.6067415730337" y1="152.04037386505968" x2="808.6067415730337" y2="152.04037386505968"/>
<line class="error" x1="796.6067415730337" y1="120.02836213494044" x2="808.6067415730337" y2="120.02836213494044"/>
<circle class="marker" cx="802.6067415730337" cy="136.0343680000001" r="4.5"/>
<circle class="marker" cx="812.1348314606741" cy="123.82319999999999" r="4.5"/>
<circle class="marker" cx="821.6629213483146" cy="114.84584000000001" r="4.5"/>
<circle class="marker" cx="831.1910112359551" cy="126.15152000000006" r="4.5"/>
<circle class="marker" cx="840.7191011235955" cy="114.90431999999998" r="4.5"/>
<circle class="marker" cx="850.2471910112359" cy="122.90928000000008" r="4.5"/>
<circle class="marker" cx="859.7752808988764" cy="101.94080000000008" r="4.5"/>
<circle class="marker" cx="869.3033707865169" cy="108.59800000000001" r="4.5"/>
<circle class="marker" cx="878.8314606741573" cy="77.3316000000001" r="4.5"/>
<circle class="marker" cx="888.3595505617977" cy="92.03999999999996" r="4.5"/>
<circle class="marker" cx="897.8876404494382" cy="87.54928000000007" r="4.5"/>
<circle class="marker" cx="907.4157303370787" cy="99.41799999999995" r="4.5"/>
<circle class="marker" cx="916.943820224719" cy="61.331200000000024" r="4.5"/>
<circle class="marker" cx="926.4719101123595" cy="66.3904" r="4.5"/>
<circle class="marker" cx="936.0" cy="74.43616000000003" r="4.5"/>
</svg>